<svg width="77" height="77" viewBox="0 0 77 77" fill="none" xmlns="http://www.w3.org/2000/svg">
<path d="M51.5278 69.1264C52.43 68.2239 52.9369 67 52.9369 65.7239C52.9369 64.4478 52.43 63.224 51.5278 62.3215L27.7059 38.4996L51.5278 14.6777C52.4045 13.7701 52.8895 12.5544 52.8786 11.2926C52.8676 10.0308 52.3615 8.82375 51.4692 7.93148C50.5769 7.0392 49.3699 6.53308 48.1081 6.52212C46.8462 6.51115 45.6306 6.99622 44.7229 7.87286L17.4986 35.0972C16.5964 35.9997 16.0896 37.2235 16.0896 38.4996C16.0896 39.7757 16.5964 40.9996 17.4986 41.902L44.7229 69.1264C45.6254 70.0286 46.8493 70.5354 48.1254 70.5354C49.4015 70.5354 50.6253 70.0286 51.5278 69.1264Z" fill="#F59A1B"/>
</svg>
