<svg width="27" height="27" viewBox="0 0 27 27" fill="none" xmlns="http://www.w3.org/2000/svg">
<path d="M14.2753 26.7261H1.47508C0.660176 26.7261 0 26.0655 0 25.2509V1.47506C0 0.660274 0.660279 0 1.47508 0H25.2511C26.0657 0 26.7261 0.660274 26.7261 1.47506V25.2509C26.7261 26.0656 26.0656 26.7261 25.2511 26.7261H18.4406V16.3763H21.9146L22.4348 12.3428H18.4406V9.76764C18.4406 8.59984 18.7649 7.80403 20.4395 7.80403L22.5754 7.8031V4.19549C22.206 4.14634 20.9381 4.03652 19.463 4.03652C16.3836 4.03652 14.2753 5.91623 14.2753 9.36818V12.3428H10.7924V16.3763H14.2753V26.7261V26.7261Z" fill="#F8F9FA"/>
</svg>
