<svg width="82" height="38" viewBox="0 0 82 38" fill="none" xmlns="http://www.w3.org/2000/svg">
<path d="M36.8684 4.76029V13.1911C36.8684 13.5393 36.7998 13.8841 36.6666 14.2057C36.5333 14.5274 36.338 14.8197 36.0918 15.0659C35.8456 15.3121 35.5534 15.5074 35.2317 15.6406C34.91 15.7739 34.5652 15.8425 34.2171 15.8425H33.4883C32.7031 15.8425 31.9247 15.5476 31.4061 14.959C30.7441 14.2053 29.9007 13.633 28.9558 13.2963C28.0108 12.9595 26.9956 12.8694 26.0061 13.0345C23.4482 13.4431 21.4127 15.5768 21.1092 18.1484C21.0075 18.9793 21.0834 19.8224 21.3319 20.6218C21.5804 21.4212 21.9958 22.1587 22.5506 22.7856C23.1054 23.4125 23.7869 23.9145 24.5502 24.2583C25.3134 24.6022 26.141 24.78 26.9781 24.7802C28.7052 24.7802 30.2541 24.0388 31.3341 22.8576C31.8673 22.2738 32.5873 21.8943 33.3784 21.8943H34.2171C34.5653 21.8943 34.9102 21.963 35.2319 22.0963C35.5536 22.2296 35.846 22.425 36.0922 22.6713C36.3384 22.9176 36.5337 23.21 36.6669 23.5317C36.8001 23.8535 36.8685 24.1984 36.8684 24.5467V32.9765C36.8684 34.0087 36.4584 34.9986 35.7285 35.7285C34.9986 36.4584 34.0087 36.8684 32.9765 36.8684L4.76029 36.8684C3.7281 36.8684 2.73818 36.4584 2.00831 35.7285C1.27843 34.9986 0.868397 34.0087 0.868397 32.9765V4.76029C0.868397 3.7281 1.27843 2.73818 2.00831 2.00831C2.73818 1.27843 3.7281 0.868397 4.76029 0.868397L32.9765 0.868397C34.0087 0.868397 34.9986 1.27843 35.7285 2.00831C36.4584 2.73818 36.8684 3.7281 36.8684 4.76029Z" stroke="white" stroke-width="1.73677" stroke-linecap="round" stroke-linejoin="round"/>
<path d="M76.4585 0.868408L68.0276 0.868408C67.6795 0.868408 67.3347 0.936988 67.013 1.07023C66.6913 1.20347 66.3991 1.39877 66.1529 1.64497C65.9067 1.89117 65.7114 2.18346 65.5781 2.50513C65.4449 2.82681 65.3763 3.17158 65.3763 3.51976V4.24852C65.3763 5.03371 65.6711 5.81209 66.2598 6.33068C67.0134 6.99273 67.5857 7.83611 67.9225 8.78104C68.2592 9.72598 68.3494 10.7412 68.1843 11.7307C67.7756 14.2886 65.6419 16.3241 63.0703 16.6277C62.2394 16.7293 61.3964 16.6534 60.597 16.4049C59.7976 16.1564 59.06 15.741 58.4331 15.1863C57.8062 14.6315 57.3042 13.9499 56.9604 13.1866C56.6166 12.4234 56.4387 11.5958 56.4386 10.7587C56.4386 9.03165 57.18 7.48268 58.3612 6.40268C58.9449 5.86949 59.3244 5.14949 59.3244 4.35846V3.51976C59.3244 3.1715 59.2558 2.82665 59.1225 2.50491C58.9892 2.18317 58.7938 1.89084 58.5475 1.64463C58.3012 1.39841 58.0088 1.20314 57.687 1.06995C57.3652 0.936766 57.0203 0.868281 56.6721 0.868408L48.2422 0.868408C47.21 0.868408 46.2201 1.27845 45.4903 2.00832C44.7604 2.73819 44.3503 3.72811 44.3503 4.7603L44.3503 32.9765C44.3503 34.0087 44.7604 34.9986 45.4903 35.7285C46.2201 36.4584 47.21 36.8684 48.2422 36.8684H76.4585C77.4907 36.8684 78.4806 36.4584 79.2104 35.7285C79.9403 34.9986 80.3504 34.0087 80.3504 32.9765L80.3504 4.7603C80.3504 3.72811 79.9403 2.73819 79.2104 2.00832C78.4806 1.27845 77.4907 0.868408 76.4585 0.868408Z" stroke="white" stroke-width="1.73677" stroke-linecap="round" stroke-linejoin="round"/>
</svg>
