<svg width="108" height="85" viewBox="0 0 108 85" fill="none" xmlns="http://www.w3.org/2000/svg">
<path d="M7.18195 77.0315C5.83419 77.0315 4.78077 76.8301 4.02169 76.4273C3.27809 76.0091 2.75138 75.3739 2.44155 74.5219C2.14722 73.6543 2.00005 72.5545 2.00005 71.2222C2.00005 69.8899 2.14722 68.7978 2.44155 67.9457C2.75138 67.0782 3.27809 66.4431 4.02169 66.0403C4.78077 65.622 5.83419 65.4129 7.18195 65.4129H11.9921V76.102H10.1796V66.2727L11.109 67.0627H7.18195C6.28344 67.0627 5.58633 67.1712 5.0906 67.388C4.61036 67.6049 4.2773 68.0154 4.0914 68.6196C3.9055 69.2083 3.81255 70.0758 3.81255 71.2222C3.81255 72.3686 3.9055 73.2438 4.0914 73.848C4.2773 74.4367 4.61036 74.8394 5.0906 75.0563C5.58633 75.2732 6.28344 75.3817 7.18195 75.3817H14.5017V77.0315H7.18195ZM14.5017 77.0315V75.3817C14.5946 75.3817 14.6721 75.4049 14.7341 75.4514C14.796 75.4823 14.8425 75.5366 14.8735 75.614C14.9045 75.676 14.9277 75.7612 14.9432 75.8696C14.9587 75.9626 14.9664 76.071 14.9664 76.195C14.9664 76.3189 14.9587 76.4351 14.9432 76.5435C14.9277 76.652 14.9045 76.7449 14.8735 76.8224C14.8425 76.8843 14.796 76.9385 14.7341 76.985C14.6721 77.016 14.5946 77.0315 14.5017 77.0315ZM14.5046 77.0315V75.3817H17.8507L17.0142 76.0555V65.4129H18.8267V77.0315H14.5046ZM14.5046 77.0315C14.4116 77.0315 14.3342 77.016 14.2722 76.985C14.2102 76.9385 14.1638 76.8843 14.1328 76.8224C14.1018 76.7449 14.0786 76.652 14.0631 76.5435C14.0476 76.4351 14.0398 76.3189 14.0398 76.195C14.0398 76.0245 14.0553 75.8851 14.0863 75.7767C14.1018 75.6528 14.1483 75.5598 14.2257 75.4978C14.2877 75.4204 14.3807 75.3817 14.5046 75.3817V77.0315ZM17.0142 63.3215V61.2302H18.8267V63.3215H17.0142ZM24.7197 77.0315V75.3817H27.5547V77.0315H24.7197ZM22.9304 77.0315V60.3704H24.7197V77.0315H22.9304ZM27.5547 77.0315V75.3817C27.6476 75.3817 27.7251 75.4049 27.787 75.4514C27.849 75.4823 27.8955 75.5366 27.9265 75.614C27.9574 75.676 27.9807 75.7612 27.9962 75.8696C28.0117 75.9626 28.0194 76.071 28.0194 76.195C28.0194 76.3189 28.0117 76.4351 27.9962 76.5435C27.9807 76.652 27.9574 76.7449 27.9265 76.8224C27.8955 76.8843 27.849 76.9385 27.787 76.985C27.7251 77.016 27.6476 77.0315 27.5547 77.0315ZM40.3333 77.0315V75.3817H42.8429V77.0315H40.3333ZM27.5528 77.0315C27.4599 77.0315 27.3824 77.016 27.3205 76.985C27.2585 76.9385 27.212 76.8843 27.181 76.8224C27.1501 76.7449 27.1268 76.652 27.1113 76.5435C27.0958 76.4351 27.0881 76.3189 27.0881 76.195C27.0881 76.0245 27.1036 75.8851 27.1346 75.7767C27.1501 75.6528 27.1965 75.5598 27.274 75.4978C27.336 75.4204 27.4289 75.3817 27.5528 75.3817V77.0315ZM27.5528 77.0315V75.3817H39.1715L38.5208 75.9626V71.8264C38.5208 70.9898 38.4046 70.3004 38.1723 69.7582C37.9554 69.2005 37.6223 68.79 37.1731 68.5267C36.7393 68.2478 36.1893 68.1084 35.5232 68.1084H30.4575L29.133 66.11L30.1322 64.1813C30.3181 63.8405 30.5117 63.4919 30.7131 63.1356C30.9145 62.7793 31.1624 62.3688 31.4567 61.9041C31.751 61.4393 32.1228 60.8739 32.5721 60.2077L34.0825 61.114C33.6333 61.7956 33.2692 62.361 32.9904 62.8103C32.7115 63.2596 32.4714 63.6468 32.27 63.9722C32.0841 64.2975 31.906 64.6228 31.7355 64.9481L30.5737 67.1789L30.1089 66.4585H35.5232C36.4992 66.4585 37.297 66.629 37.9167 66.9698C38.5518 67.2951 39.0398 67.7289 39.3806 68.2711C39.7369 68.8133 39.9848 69.4019 40.1242 70.0371C40.2636 70.6567 40.3333 71.2532 40.3333 71.8264V77.0315H27.5528ZM42.8429 77.0315V75.3817C42.9359 75.3817 43.0134 75.4049 43.0753 75.4514C43.1373 75.4823 43.1838 75.5366 43.2147 75.614C43.2457 75.676 43.269 75.7612 43.2845 75.8696C43.2999 75.9626 43.3077 76.071 43.3077 76.195C43.3077 76.3189 43.2999 76.4351 43.2845 76.5435C43.269 76.652 43.2457 76.7449 43.2147 76.8224C43.1838 76.8843 43.1373 76.9385 43.0753 76.985C43.0134 77.016 42.9359 77.0315 42.8429 77.0315ZM42.8477 77.0315V75.3817H55.5584L54.2107 76.3344V71.3384C54.2107 70.254 54.0867 69.4019 53.8389 68.7823C53.591 68.1626 53.165 67.7211 52.5608 67.4578C51.9722 67.1944 51.1666 67.0627 50.1442 67.0627C49.4935 67.0627 48.8429 67.1092 48.1922 67.2021C47.5571 67.2951 47.0614 67.419 46.705 67.5739L47.7972 66.4585C47.7042 66.8303 47.6113 67.3028 47.5183 67.876C47.4254 68.4337 47.3479 69.0379 47.286 69.6885C47.224 70.3392 47.193 70.9898 47.193 71.6405C47.193 72.3066 47.224 72.9572 47.286 73.5924C47.3479 74.2275 47.4177 74.7775 47.4951 75.2422C47.5726 75.707 47.6345 76.0323 47.681 76.2182L45.9615 76.7062C45.8995 76.5048 45.822 76.1562 45.7291 75.6605C45.6516 75.1648 45.5742 74.5683 45.4967 73.8712C45.4347 73.1741 45.4038 72.4305 45.4038 71.6405C45.4038 70.8814 45.4347 70.1455 45.4967 69.4329C45.5742 68.7048 45.6594 68.0464 45.7523 67.4578C45.8608 66.8691 45.9615 66.3966 46.0544 66.0403C46.3952 65.9009 46.9374 65.7614 47.681 65.622C48.4246 65.4826 49.2457 65.4129 50.1442 65.4129C51.4454 65.4129 52.5298 65.6065 53.3974 65.9938C54.2804 66.3811 54.9388 67.0085 55.3725 67.876C55.8063 68.7281 56.0232 69.8822 56.0232 71.3384V77.0315H42.8477ZM42.8477 77.0315C42.7547 77.0315 42.6773 77.016 42.6153 76.985C42.5533 76.9385 42.5069 76.8843 42.4759 76.8224C42.4449 76.7449 42.4216 76.652 42.4062 76.5435C42.3907 76.4351 42.3829 76.3189 42.3829 76.195C42.3829 76.0245 42.3984 75.8851 42.4294 75.7767C42.4449 75.6528 42.4914 75.5598 42.5688 75.4978C42.6308 75.4204 42.7237 75.3817 42.8477 75.3817V77.0315ZM89.3298 77.0315V75.3817H91.8394V77.0315H89.3298ZM70.3217 82.7943C69.0979 82.7943 67.9902 82.5697 66.9988 82.1204C66.0073 81.6712 65.225 81.0438 64.6518 80.2382C64.0786 79.4327 63.792 78.5109 63.792 77.473C63.792 77.1477 63.8153 76.7217 63.8618 76.195C63.9237 75.6528 63.9934 75.0563 64.0709 74.4057C64.1638 73.7396 64.2645 73.0734 64.373 72.4073C64.4814 71.7257 64.5821 71.0828 64.6751 70.4786L66.4643 70.7574C66.2939 71.8264 66.139 72.8178 65.9996 73.7318C65.8756 74.6303 65.775 75.4049 65.6975 76.0555C65.6355 76.6907 65.6045 77.1632 65.6045 77.473C65.6045 78.1856 65.7982 78.813 66.1855 79.3552C66.5883 79.9129 67.146 80.3467 67.8586 80.6565C68.5712 80.9818 69.3922 81.1445 70.3217 81.1445C71.2512 81.1445 72.049 80.9973 72.7151 80.703C73.3813 80.4086 73.8925 79.9981 74.2488 79.4714C74.6051 78.9447 74.7833 78.325 74.7833 77.6124V67.7366H76.5958V77.6124C76.5958 78.6968 76.3092 79.6263 75.736 80.4009C75.1783 81.1755 74.427 81.7641 73.482 82.1669C72.537 82.5852 71.4836 82.7943 70.3217 82.7943ZM76.5958 77.0315V75.3817H79.1983C79.725 75.3817 80.1278 75.3042 80.4067 75.1493C80.6855 74.9944 80.8792 74.6845 80.9876 74.2198C81.096 73.755 81.1503 73.0734 81.1503 72.1749V66.5747H82.9628V72.1749C82.9628 73.3832 82.8311 74.3437 82.5677 75.0563C82.3199 75.7689 81.9171 76.2802 81.3594 76.59C80.8172 76.8843 80.0968 77.0315 79.1983 77.0315H76.5958ZM84.1014 77.0315C83.5747 77.0315 83.0557 76.9308 82.5445 76.7294C82.0488 76.528 81.5608 76.2104 81.0805 75.7767L82.2656 74.5451C82.622 74.8394 82.9395 75.0563 83.2184 75.1958C83.5127 75.3197 83.8071 75.3817 84.1014 75.3817H88.2376L87.5405 76.1252V70.5715C87.5405 70.2927 87.5095 69.8977 87.4476 69.3864C87.3856 68.8752 87.3004 68.302 87.1919 67.6669C87.099 67.0162 86.9906 66.3656 86.8666 65.715L88.6327 65.4129C88.7411 65.9551 88.8495 66.5592 88.958 67.2254C89.0664 67.8915 89.1516 68.5267 89.2136 69.1308C89.291 69.7195 89.3298 70.1997 89.3298 70.5715V77.0315H84.1014ZM91.8394 77.0315V75.3817C91.9323 75.3817 92.0098 75.4049 92.0718 75.4514C92.1337 75.4823 92.1802 75.5366 92.2112 75.614C92.2422 75.676 92.2654 75.7612 92.2809 75.8696C92.2964 75.9626 92.3041 76.071 92.3041 76.195C92.3041 76.3189 92.2964 76.4351 92.2809 76.5435C92.2654 76.652 92.2422 76.7449 92.2112 76.8224C92.1802 76.8843 92.1337 76.9385 92.0718 76.985C92.0098 77.016 91.9323 77.0315 91.8394 77.0315ZM81.1967 60.2542V58.279H82.8698V60.2542H81.1967ZM79.5237 63.3215V61.2302H81.3362V63.3215H79.5237ZM82.7072 63.3215V61.2302H84.5197V63.3215H82.7072ZM91.841 77.0315V75.3817H104.552L103.204 76.3344V71.3384C103.204 70.254 103.08 69.4019 102.832 68.7823C102.584 68.1626 102.158 67.7211 101.554 67.4578C100.966 67.1944 100.16 67.0627 99.1375 67.0627C98.4869 67.0627 97.8362 67.1092 97.1856 67.2021C96.5504 67.2951 96.0547 67.419 95.6984 67.5739L96.7906 66.4585C96.6976 66.8303 96.6047 67.3028 96.5117 67.876C96.4188 68.4337 96.3413 69.0379 96.2793 69.6885C96.2174 70.3392 96.1864 70.9898 96.1864 71.6405C96.1864 72.3066 96.2174 72.9572 96.2793 73.5924C96.3413 74.2275 96.411 74.7775 96.4885 75.2422C96.5659 75.707 96.6279 76.0323 96.6744 76.2182L94.9548 76.7062C94.8928 76.5048 94.8154 76.1562 94.7224 75.6605C94.645 75.1648 94.5675 74.5683 94.4901 73.8712C94.4281 73.1741 94.3971 72.4305 94.3971 71.6405C94.3971 70.8814 94.4281 70.1455 94.4901 69.4329C94.5675 68.7048 94.6527 68.0464 94.7457 67.4578C94.8541 66.8691 94.9548 66.3966 95.0478 66.0403C95.3886 65.9009 95.9308 65.7614 96.6744 65.622C97.418 65.4826 98.239 65.4129 99.1375 65.4129C100.439 65.4129 101.523 65.6065 102.391 65.9938C103.274 66.3811 103.932 67.0085 104.366 67.876C104.8 68.7281 105.017 69.8822 105.017 71.3384V77.0315H91.841ZM91.841 77.0315C91.7481 77.0315 91.6706 77.016 91.6086 76.985C91.5467 76.9385 91.5002 76.8843 91.4692 76.8224C91.4382 76.7449 91.415 76.652 91.3995 76.5435C91.384 76.4351 91.3763 76.3189 91.3763 76.195C91.3763 76.0245 91.3918 75.8851 91.4227 75.7767C91.4382 75.6528 91.4847 75.5598 91.5622 75.4978C91.6241 75.4204 91.7171 75.3817 91.841 75.3817V77.0315Z" fill="white"/>
<path d="M48.9238 6.24373V17.4505C48.9238 17.9133 48.8327 18.3716 48.6556 18.7992C48.4784 19.2268 48.2188 19.6153 47.8916 19.9426C47.5643 20.2698 47.1758 20.5294 46.7482 20.7066C46.3206 20.8837 45.8623 20.9748 45.3995 20.9748H44.4308C43.3871 20.9748 42.3524 20.583 41.663 19.8005C40.783 18.7987 39.6619 18.0379 38.4059 17.5903C37.1498 17.1426 35.8003 17.0228 34.485 17.2423C31.0848 17.7855 28.3792 20.6218 27.9757 24.04C27.8405 25.1446 27.9415 26.2652 28.2718 27.3278C28.6021 28.3904 29.1542 29.3708 29.8917 30.2041C30.6291 31.0374 31.5351 31.7047 32.5497 32.1617C33.5642 32.6188 34.6643 32.8552 35.7771 32.8554C38.0727 32.8554 40.1317 31.8699 41.5673 30.2998C42.2761 29.5238 43.2331 29.0194 44.2846 29.0194H45.3995C45.8624 29.0194 46.3208 29.1106 46.7485 29.2878C47.1762 29.465 47.5647 29.7247 47.892 30.0521C48.2193 30.3795 48.4789 30.7682 48.6559 31.1959C48.833 31.6237 48.924 32.0821 48.9238 32.545L48.9238 43.7505C48.9238 45.1225 48.3788 46.4384 47.4086 47.4086C46.4384 48.3788 45.1225 48.9238 43.7505 48.9238L6.24373 48.9238C4.87167 48.9238 3.55582 48.3788 2.58562 47.4086C1.61543 46.4384 1.07039 45.1225 1.07039 43.7505V6.24373C1.07039 4.87167 1.61543 3.55582 2.58562 2.58562C3.55582 1.61543 4.87167 1.07039 6.24373 1.07039L43.7505 1.07039C45.1225 1.07039 46.4384 1.61543 47.4086 2.58562C48.3788 3.55582 48.9238 4.87167 48.9238 6.24373Z" stroke="white" stroke-width="2.14069" stroke-linecap="round" stroke-linejoin="round"/>
<path d="M101.549 1.07031L90.3427 1.07031C89.8799 1.07031 89.4216 1.16147 88.994 1.33859C88.5664 1.5157 88.1779 1.7753 87.8506 2.10257C87.5234 2.42983 87.2638 2.81835 87.0867 3.24595C86.9095 3.67354 86.8184 4.13183 86.8184 4.59465V5.56336C86.8184 6.60709 87.2103 7.64175 87.9927 8.3311C88.9945 9.21113 89.7553 10.3322 90.2029 11.5883C90.6506 12.8443 90.7704 14.1938 90.551 15.5091C90.0077 18.9093 87.1715 21.615 83.7532 22.0185C82.6486 22.1536 81.528 22.0527 80.4654 21.7224C79.4028 21.3921 78.4224 20.8399 77.5891 20.1025C76.7558 19.365 76.0885 18.459 75.6315 17.4445C75.1744 16.4299 74.938 15.3298 74.9378 14.2171C74.9378 11.9214 75.9233 9.86241 77.4934 8.42681C78.2694 7.71806 78.7738 6.76099 78.7738 5.70951V4.59465C78.7738 4.13172 78.6826 3.67333 78.5054 3.24565C78.3282 2.81797 78.0685 2.42939 77.7411 2.10211C77.4137 1.77483 77.025 1.51525 76.5973 1.33822C76.1696 1.16118 75.7111 1.07014 75.2482 1.07031L64.0427 1.07031C62.6707 1.07031 61.3548 1.61536 60.3846 2.58555C59.4144 3.55574 58.8694 4.8716 58.8694 6.24366L58.8694 43.7504C58.8694 45.1225 59.4144 46.4383 60.3846 47.4085C61.3548 48.3787 62.6707 48.9238 64.0427 48.9238L101.549 48.9238C102.922 48.9238 104.237 48.3787 105.208 47.4085C106.178 46.4383 106.723 45.1225 106.723 43.7504L106.723 6.24366C106.723 4.8716 106.178 3.55574 105.208 2.58555C104.237 1.61536 102.922 1.07031 101.549 1.07031Z" stroke="white" stroke-width="2.14069" stroke-linecap="round" stroke-linejoin="round"/>
</svg>
