<svg width="86" height="86" viewBox="0 0 86 86" fill="none" xmlns="http://www.w3.org/2000/svg">
<path fill-rule="evenodd" clip-rule="evenodd" d="M21.4999 38.7C23.7807 38.7 25.9682 37.7939 27.581 36.1811C29.1938 34.5683 30.0999 32.3808 30.0999 30.1C30.0999 27.8191 29.1938 25.6316 27.581 24.0188C25.9682 22.406 23.7807 21.5 21.4999 21.5C19.219 21.5 17.0315 22.406 15.4187 24.0188C13.8059 25.6316 12.8999 27.8191 12.8999 30.1C12.8999 32.3808 13.8059 34.5683 15.4187 36.1811C17.0315 37.7939 19.219 38.7 21.4999 38.7ZM21.4999 43C23.1939 43 24.8714 42.6663 26.4365 42.018C28.0016 41.3697 29.4237 40.4195 30.6215 39.2216C31.8194 38.0238 32.7696 36.6017 33.4179 35.0366C34.0662 33.4715 34.3999 31.794 34.3999 30.1C34.3999 28.4059 34.0662 26.7284 33.4179 25.1633C32.7696 23.5982 31.8194 22.1762 30.6215 20.9783C29.4237 19.7804 28.0016 18.8302 26.4365 18.1819C24.8714 17.5336 23.1939 17.2 21.4999 17.2C18.0786 17.2 14.7974 18.5591 12.3782 20.9783C9.95896 23.3975 8.59985 26.6787 8.59985 30.1C8.59985 33.5212 9.95896 36.8024 12.3782 39.2216C14.7974 41.6409 18.0786 43 21.4999 43Z" fill="#F8F9FA"/>
<path fill-rule="evenodd" clip-rule="evenodd" d="M16.5722 38.2534C16.7724 38.4531 16.9312 38.6904 17.0396 38.9516C17.148 39.2128 17.2038 39.4928 17.2038 39.7756C17.2038 40.0584 17.148 40.3384 17.0396 40.5997C16.9312 40.8609 16.7724 41.0981 16.5722 41.2978L15.1188 42.7469C12.3218 45.5447 10.7503 49.3387 10.75 53.2948V61.2756C10.75 61.8458 10.5234 62.3927 10.1202 62.7959C9.71703 63.1991 9.17017 63.4256 8.59995 63.4256C8.02974 63.4256 7.48287 63.1991 7.07967 62.7959C6.67647 62.3927 6.44995 61.8458 6.44995 61.2756V53.2948C6.45056 48.1984 8.47519 43.3108 12.0787 39.7068L13.5278 38.2534C13.7275 38.0532 13.9647 37.8944 14.2259 37.786C14.4871 37.6776 14.7672 37.6218 15.05 37.6218C15.3328 37.6218 15.6128 37.6776 15.874 37.786C16.1352 37.8944 16.3724 38.0532 16.5722 38.2534ZM67.2778 36.9634C67.0775 37.1631 66.9187 37.4004 66.8103 37.6616C66.7019 37.9228 66.6461 38.2028 66.6461 38.4856C66.6461 38.7684 66.7019 39.0485 66.8103 39.3097C66.9187 39.5709 67.0775 39.8081 67.2778 40.0078L68.7312 41.4569C71.5282 44.2547 73.0996 48.0487 73.1 52.0048V61.2756C73.1 61.8458 73.3265 62.3927 73.7297 62.7959C74.1329 63.1991 74.6797 63.4256 75.25 63.4256C75.8202 63.4256 76.367 63.1991 76.7702 62.7959C77.1734 62.3927 77.4 61.8458 77.4 61.2756V52.0048C77.3993 46.9084 75.3747 42.0208 71.7713 38.4168L70.3222 36.9634C70.1224 36.7632 69.8852 36.6044 69.624 36.496C69.3628 36.3876 69.0828 36.3318 68.8 36.3318C68.5172 36.3318 68.2371 36.3876 67.9759 36.496C67.7147 36.6044 67.4775 36.7632 67.2778 36.9634Z" fill="#F8F9FA"/>
<path fill-rule="evenodd" clip-rule="evenodd" d="M60.2 38.6999C57.9192 38.6999 55.7317 37.7939 54.1189 36.1811C52.5061 34.5683 51.6 32.3808 51.6 30.1C51.6 27.8191 52.5061 25.6316 54.1189 24.0188C55.7317 22.406 57.9192 21.5 60.2 21.5C62.4809 21.5 64.6684 22.406 66.2812 24.0188C67.894 25.6316 68.8 27.8191 68.8 30.1C68.8 32.3808 67.894 34.5683 66.2812 36.1811C64.6684 37.7939 62.4809 38.6999 60.2 38.6999ZM60.2 42.9999C58.506 42.9999 56.8285 42.6663 55.2634 42.018C53.6983 41.3697 52.2762 40.4195 51.0784 39.2216C49.8805 38.0238 48.9303 36.6017 48.282 35.0366C47.6337 33.4715 47.3 31.794 47.3 30.1C47.3 28.4059 47.6337 26.7284 48.282 25.1633C48.9303 23.5982 49.8805 22.1761 51.0784 20.9783C52.2762 19.7804 53.6983 18.8302 55.2634 18.1819C56.8285 17.5336 58.506 17.2 60.2 17.2C63.6213 17.2 66.9025 18.5591 69.3217 20.9783C71.7409 23.3975 73.1 26.6787 73.1 30.1C73.1 33.5212 71.7409 36.8024 69.3217 39.2216C66.9025 41.6408 63.6213 42.9999 60.2 42.9999ZM40.85 56.9749C37.999 56.9749 35.2647 58.1075 33.2487 60.1236C31.2326 62.1396 30.1 64.8739 30.1 67.7249V73.3149C30.1 73.8852 29.8735 74.432 29.4703 74.8352C29.0671 75.2384 28.5203 75.4649 27.95 75.4649C27.3798 75.4649 26.833 75.2384 26.4298 74.8352C26.0266 74.432 25.8 73.8852 25.8 73.3149V67.7249C25.8 63.7334 27.3857 59.9054 30.2081 57.083C33.0305 54.2606 36.8585 52.6749 40.85 52.6749C44.8416 52.6749 48.6696 54.2606 51.492 57.083C54.3144 59.9054 55.9 63.7334 55.9 67.7249V73.3149C55.9 73.8852 55.6735 74.432 55.2703 74.8352C54.8671 75.2384 54.3203 75.4649 53.75 75.4649C53.1798 75.4649 52.633 75.2384 52.2298 74.8352C51.8266 74.432 51.6 73.8852 51.6 73.3149V67.7249C51.6 66.3132 51.322 64.9153 50.7818 63.6111C50.2415 62.3068 49.4497 61.1218 48.4514 60.1236C47.4532 59.1253 46.2681 58.3335 44.9639 57.7932C43.6596 57.253 42.2618 56.9749 40.85 56.9749Z" fill="#F8F9FA"/>
<path fill-rule="evenodd" clip-rule="evenodd" d="M40.85 50.5251C43.1308 50.5251 45.3183 49.6191 46.9311 48.0063C48.5439 46.3935 49.45 44.206 49.45 41.9251C49.45 39.6443 48.5439 37.4568 46.9311 35.844C45.3183 34.2312 43.1308 33.3251 40.85 33.3251C38.5691 33.3251 36.3816 34.2312 34.7688 35.844C33.156 37.4568 32.25 39.6443 32.25 41.9251C32.25 44.206 33.156 46.3935 34.7688 48.0063C36.3816 49.6191 38.5691 50.5251 40.85 50.5251ZM40.85 54.8251C44.2712 54.8251 47.5524 53.466 49.9716 51.0468C52.3909 48.6276 53.75 45.3464 53.75 41.9251C53.75 38.5039 52.3909 35.2227 49.9716 32.8035C47.5524 30.3843 44.2712 29.0251 40.85 29.0251C37.4287 29.0251 34.1475 30.3843 31.7283 32.8035C29.3091 35.2227 27.95 38.5039 27.95 41.9251C27.95 45.3464 29.3091 48.6276 31.7283 51.0468C34.1475 53.466 37.4287 54.8251 40.85 54.8251Z" fill="#F8F9FA"/>
</svg>
