<svg width="606" height="373" viewBox="0 0 606 373" fill="none" xmlns="http://www.w3.org/2000/svg">
<path d="M39.8762 24.5987V23.7038H44.7855V24.428C44.3027 24.9419 43.8233 25.6247 43.3474 26.4766C42.8749 27.3284 42.5093 28.2044 42.2507 29.1045C42.0644 29.7391 41.9455 30.434 41.8937 31.1893H40.9367C40.947 30.5927 41.0643 29.8719 41.2885 29.0269C41.5126 28.182 41.8334 27.3681 42.2507 26.5852C42.6714 25.7989 43.118 25.1367 43.5905 24.5987H39.8762ZM45.7115 27.4491C45.7115 26.5524 45.8029 25.8317 45.9857 25.2867C46.1719 24.7384 46.4461 24.3159 46.8082 24.0193C47.1738 23.7227 47.6325 23.5744 48.1843 23.5744C48.5912 23.5744 48.9482 23.6572 49.2551 23.8227C49.5621 23.9848 49.8156 24.2211 50.0156 24.5315C50.2156 24.8384 50.3725 25.2143 50.4864 25.6592C50.6002 26.1007 50.6571 26.6973 50.6571 27.4491C50.6571 28.3389 50.5657 29.058 50.3829 29.6063C50.2001 30.1512 49.9259 30.5737 49.5604 30.8738C49.1982 31.1704 48.7395 31.3187 48.1843 31.3187C47.4532 31.3187 46.8789 31.0566 46.4616 30.5323C45.9616 29.9012 45.7115 28.8735 45.7115 27.4491ZM46.6686 27.4491C46.6686 28.6941 46.8134 29.5236 47.1031 29.9374C47.3962 30.3478 47.7566 30.553 48.1843 30.553C48.6119 30.553 48.9706 30.3461 49.2603 29.9323C49.5535 29.5184 49.7 28.6907 49.7 27.4491C49.7 26.2007 49.5535 25.3712 49.2603 24.9608C48.9706 24.5504 48.6085 24.3452 48.1739 24.3452C47.7463 24.3452 47.4049 24.5263 47.1497 24.8884C46.8289 25.3505 46.6686 26.2041 46.6686 27.4491ZM51.7848 25.4264C51.7848 24.885 51.921 24.4245 52.1935 24.0452C52.466 23.6658 52.8608 23.4761 53.3782 23.4761C53.8541 23.4761 54.2472 23.6468 54.5576 23.9883C54.8715 24.3263 55.0284 24.8246 55.0284 25.4833C55.0284 26.1248 54.8698 26.6197 54.5525 26.968C54.2386 27.3129 53.8506 27.4853 53.3885 27.4853C52.9298 27.4853 52.547 27.3146 52.2401 26.9732C51.9366 26.6318 51.7848 26.1162 51.7848 25.4264ZM53.404 24.1176C53.173 24.1176 52.9798 24.2176 52.8246 24.4177C52.6729 24.6177 52.597 24.985 52.597 25.5195C52.597 26.0058 52.6746 26.349 52.8298 26.549C52.985 26.7456 53.1764 26.8439 53.404 26.8439C53.6385 26.8439 53.8317 26.7439 53.9834 26.5438C54.1386 26.3438 54.2162 25.9782 54.2162 25.4471C54.2162 24.9574 54.1386 24.6142 53.9834 24.4177C53.8282 24.2176 53.6351 24.1176 53.404 24.1176ZM53.4092 31.4687L57.5581 23.4761H58.3134L54.18 31.4687H53.4092ZM56.689 29.4098C56.689 28.8649 56.8252 28.4044 57.0977 28.0285C57.3701 27.6492 57.7667 27.4595 58.2875 27.4595C58.7634 27.4595 59.1566 27.6302 59.467 27.9716C59.7808 28.3096 59.9377 28.8079 59.9377 29.4667C59.9377 30.1081 59.7791 30.603 59.4618 30.9514C59.148 31.2962 58.7583 31.4687 58.2927 31.4687C57.834 31.4687 57.4512 31.298 57.1442 30.9565C56.8407 30.6117 56.689 30.0961 56.689 29.4098ZM58.3134 28.1009C58.0788 28.1009 57.884 28.201 57.7288 28.401C57.577 28.601 57.5012 28.9683 57.5012 29.5029C57.5012 29.9857 57.5788 30.3271 57.734 30.5272C57.8892 30.7272 58.0806 30.8272 58.3082 30.8272C58.5462 30.8272 58.741 30.7272 58.8928 30.5272C59.0479 30.3271 59.1255 29.9616 59.1255 29.4305C59.1255 28.9407 59.0479 28.5976 58.8928 28.401C58.7376 28.201 58.5444 28.1009 58.3134 28.1009Z" fill="#2C3E50"/>
<path d="M44.6458 70.8683L43.7198 70.9407C43.6371 70.5751 43.5198 70.3096 43.3681 70.144C43.1163 69.8785 42.8059 69.7457 42.4369 69.7457C42.1403 69.7457 41.8799 69.8285 41.6558 69.994C41.3626 70.2078 41.1315 70.5199 40.9625 70.9304C40.7936 71.3408 40.7056 71.9253 40.6987 72.6841C40.9229 72.3426 41.1971 72.0891 41.5213 71.9236C41.8454 71.7581 42.1851 71.6753 42.5404 71.6753C43.1611 71.6753 43.6888 71.9046 44.1234 72.3633C44.5614 72.8186 44.7803 73.4083 44.7803 74.1325C44.7803 74.6085 44.6769 75.0516 44.47 75.462C44.2665 75.869 43.9854 76.1811 43.6267 76.3984C43.2681 76.6157 42.8611 76.7243 42.4059 76.7243C41.6299 76.7243 40.997 76.4398 40.5073 75.8707C40.0176 75.2982 39.7727 74.3567 39.7727 73.0462C39.7727 71.5804 40.0434 70.5148 40.5849 69.8492C41.0574 69.2698 41.6937 68.9801 42.4938 68.9801C43.0904 68.9801 43.5784 69.1473 43.9578 69.4819C44.3406 69.8164 44.57 70.2785 44.6458 70.8683ZM40.8436 74.1377C40.8436 74.4585 40.9108 74.7654 41.0453 75.0585C41.1833 75.3517 41.3747 75.5759 41.6195 75.7311C41.8644 75.8828 42.1213 75.9587 42.3903 75.9587C42.7835 75.9587 43.1215 75.8 43.4043 75.4827C43.6871 75.1655 43.8285 74.7344 43.8285 74.1894C43.8285 73.6652 43.6888 73.2531 43.4095 72.9531C43.1301 72.6496 42.7783 72.4978 42.3541 72.4978C41.9334 72.4978 41.5764 72.6496 41.2833 72.9531C40.9901 73.2531 40.8436 73.648 40.8436 74.1377ZM45.7115 72.8548C45.7115 71.9581 45.8029 71.2373 45.9857 70.6924C46.1719 70.144 46.4461 69.7216 46.8082 69.425C47.1738 69.1284 47.6325 68.9801 48.1843 68.9801C48.5912 68.9801 48.9482 69.0628 49.2551 69.2284C49.5621 69.3905 49.8156 69.6267 50.0156 69.9371C50.2156 70.244 50.3725 70.62 50.4864 71.0649C50.6002 71.5063 50.6571 72.1029 50.6571 72.8548C50.6571 73.7446 50.5657 74.4636 50.3829 75.012C50.2001 75.5569 49.9259 75.9794 49.5604 76.2794C49.1982 76.576 48.7395 76.7243 48.1843 76.7243C47.4532 76.7243 46.8789 76.4622 46.4616 75.938C45.9616 75.3069 45.7115 74.2791 45.7115 72.8548ZM46.6686 72.8548C46.6686 74.0998 46.8134 74.9292 47.1031 75.3431C47.3962 75.7535 47.7566 75.9587 48.1843 75.9587C48.6119 75.9587 48.9706 75.7517 49.2603 75.3379C49.5535 74.924 49.7 74.0963 49.7 72.8548C49.7 71.6063 49.5535 70.7769 49.2603 70.3665C48.9706 69.9561 48.6085 69.7509 48.1739 69.7509C47.7463 69.7509 47.4049 69.9319 47.1497 70.2941C46.8289 70.7562 46.6686 71.6098 46.6686 72.8548ZM51.7848 70.8321C51.7848 70.2906 51.921 69.8302 52.1935 69.4508C52.466 69.0715 52.8608 68.8818 53.3782 68.8818C53.8541 68.8818 54.2472 69.0525 54.5576 69.3939C54.8715 69.7319 55.0284 70.2302 55.0284 70.889C55.0284 71.5304 54.8698 72.0253 54.5525 72.3737C54.2386 72.7185 53.8506 72.891 53.3885 72.891C52.9298 72.891 52.547 72.7203 52.2401 72.3788C51.9366 72.0374 51.7848 71.5218 51.7848 70.8321ZM53.404 69.5232C53.173 69.5232 52.9798 69.6233 52.8246 69.8233C52.6729 70.0233 52.597 70.3906 52.597 70.9252C52.597 71.4115 52.6746 71.7546 52.8298 71.9546C52.985 72.1512 53.1764 72.2495 53.404 72.2495C53.6385 72.2495 53.8317 72.1495 53.9834 71.9495C54.1386 71.7494 54.2162 71.3839 54.2162 70.8528C54.2162 70.363 54.1386 70.0199 53.9834 69.8233C53.8282 69.6233 53.6351 69.5232 53.404 69.5232ZM53.4092 76.8743L57.5581 68.8818H58.3134L54.18 76.8743H53.4092ZM56.689 74.8154C56.689 74.2705 56.8252 73.8101 57.0977 73.4342C57.3701 73.0548 57.7667 72.8651 58.2875 72.8651C58.7634 72.8651 59.1566 73.0358 59.467 73.3773C59.7808 73.7152 59.9377 74.2136 59.9377 74.8723C59.9377 75.5138 59.7791 76.0087 59.4618 76.357C59.148 76.7019 58.7583 76.8743 58.2927 76.8743C57.834 76.8743 57.4512 76.7036 57.1442 76.3622C56.8407 76.0173 56.689 75.5017 56.689 74.8154ZM58.3134 73.5066C58.0788 73.5066 57.884 73.6066 57.7288 73.8066C57.577 74.0067 57.5012 74.374 57.5012 74.9085C57.5012 75.3913 57.5788 75.7328 57.734 75.9328C57.8892 76.1328 58.0806 76.2328 58.3082 76.2328C58.5462 76.2328 58.741 76.1328 58.8928 75.9328C59.0479 75.7328 59.1255 75.3672 59.1255 74.8361C59.1255 74.3464 59.0479 74.0032 58.8928 73.8066C58.7376 73.6066 58.5444 73.5066 58.3134 73.5066Z" fill="#2C3E50"/>
<path d="M39.8141 120.014L40.7918 119.931C40.8643 120.407 41.0315 120.766 41.2936 121.007C41.5592 121.245 41.8782 121.364 42.2507 121.364C42.699 121.364 43.0784 121.195 43.3888 120.857C43.6992 120.519 43.8544 120.071 43.8544 119.512C43.8544 118.981 43.7043 118.562 43.4043 118.255C43.1077 117.948 42.718 117.795 42.2351 117.795C41.9351 117.795 41.6644 117.864 41.423 118.002C41.1815 118.136 40.9919 118.312 40.8539 118.529L39.9796 118.416L40.7142 114.52H44.4855V115.41H41.4592L41.0505 117.448C41.5057 117.131 41.9834 116.972 42.4835 116.972C43.1456 116.972 43.7043 117.202 44.1596 117.66C44.6148 118.119 44.8424 118.709 44.8424 119.43C44.8424 120.116 44.6424 120.709 44.2423 121.209C43.7561 121.823 43.0922 122.13 42.2507 122.13C41.5609 122.13 40.997 121.937 40.559 121.551C40.1245 121.164 39.8762 120.652 39.8141 120.014ZM45.7115 118.26C45.7115 117.364 45.8029 116.643 45.9857 116.098C46.1719 115.55 46.4461 115.127 46.8082 114.831C47.1738 114.534 47.6325 114.386 48.1843 114.386C48.5912 114.386 48.9482 114.468 49.2551 114.634C49.5621 114.796 49.8156 115.032 50.0156 115.343C50.2156 115.65 50.3725 116.026 50.4864 116.47C50.6002 116.912 50.6571 117.509 50.6571 118.26C50.6571 119.15 50.5657 119.869 50.3829 120.418C50.2001 120.963 49.9259 121.385 49.5604 121.685C49.1982 121.982 48.7395 122.13 48.1843 122.13C47.4532 122.13 46.8789 121.868 46.4616 121.344C45.9616 120.712 45.7115 119.685 45.7115 118.26ZM46.6686 118.26C46.6686 119.505 46.8134 120.335 47.1031 120.749C47.3962 121.159 47.7566 121.364 48.1843 121.364C48.6119 121.364 48.9706 121.157 49.2603 120.744C49.5535 120.33 49.7 119.502 49.7 118.26C49.7 117.012 49.5535 116.183 49.2603 115.772C48.9706 115.362 48.6085 115.157 48.1739 115.157C47.7463 115.157 47.4049 115.338 47.1497 115.7C46.8289 116.162 46.6686 117.015 46.6686 118.26ZM51.7848 116.238C51.7848 115.696 51.921 115.236 52.1935 114.856C52.466 114.477 52.8608 114.287 53.3782 114.287C53.8541 114.287 54.2472 114.458 54.5576 114.8C54.8715 115.138 55.0284 115.636 55.0284 116.295C55.0284 116.936 54.8698 117.431 54.5525 117.779C54.2386 118.124 53.8506 118.297 53.3885 118.297C52.9298 118.297 52.547 118.126 52.2401 117.784C51.9366 117.443 51.7848 116.927 51.7848 116.238ZM53.404 114.929C53.173 114.929 52.9798 115.029 52.8246 115.229C52.6729 115.429 52.597 115.796 52.597 116.331C52.597 116.817 52.6746 117.16 52.8298 117.36C52.985 117.557 53.1764 117.655 53.404 117.655C53.6385 117.655 53.8317 117.555 53.9834 117.355C54.1386 117.155 54.2162 116.79 54.2162 116.258C54.2162 115.769 54.1386 115.426 53.9834 115.229C53.8282 115.029 53.6351 114.929 53.404 114.929ZM53.4092 122.28L57.5581 114.287H58.3134L54.18 122.28H53.4092ZM56.689 120.221C56.689 119.676 56.8252 119.216 57.0977 118.84C57.3701 118.46 57.7667 118.271 58.2875 118.271C58.7634 118.271 59.1566 118.441 59.467 118.783C59.7808 119.121 59.9377 119.619 59.9377 120.278C59.9377 120.919 59.7791 121.414 59.4618 121.763C59.148 122.108 58.7583 122.28 58.2927 122.28C57.834 122.28 57.4512 122.109 57.1442 121.768C56.8407 121.423 56.689 120.907 56.689 120.221ZM58.3134 118.912C58.0788 118.912 57.884 119.012 57.7288 119.212C57.577 119.412 57.5012 119.78 57.5012 120.314C57.5012 120.797 57.5788 121.138 57.734 121.338C57.8892 121.538 58.0806 121.638 58.3082 121.638C58.5462 121.638 58.741 121.538 58.8928 121.338C59.0479 121.138 59.1255 120.773 59.1255 120.242C59.1255 119.752 59.0479 119.409 58.8928 119.212C58.7376 119.012 58.5444 118.912 58.3134 118.912Z" fill="#2C3E50"/>
<path d="M42.799 167.406V165.59H39.5089V164.737L42.9697 159.822H43.7302V164.737H44.7545V165.59H43.7302V167.406H42.799ZM42.799 164.737V161.317L40.4245 164.737H42.799ZM45.7115 163.666C45.7115 162.769 45.8029 162.049 45.9857 161.504C46.1719 160.955 46.4461 160.533 46.8082 160.236C47.1738 159.94 47.6325 159.791 48.1843 159.791C48.5912 159.791 48.9482 159.874 49.2551 160.04C49.5621 160.202 49.8156 160.438 50.0156 160.748C50.2156 161.055 50.3725 161.431 50.4864 161.876C50.6002 162.318 50.6571 162.914 50.6571 163.666C50.6571 164.556 50.5657 165.275 50.3829 165.823C50.2001 166.368 49.9259 166.791 49.5604 167.091C49.1982 167.387 48.7395 167.536 48.1843 167.536C47.4532 167.536 46.8789 167.273 46.4616 166.749C45.9616 166.118 45.7115 165.09 45.7115 163.666ZM46.6686 163.666C46.6686 164.911 46.8134 165.74 47.1031 166.154C47.3962 166.565 47.7566 166.77 48.1843 166.77C48.6119 166.77 48.9706 166.563 49.2603 166.149C49.5535 165.735 49.7 164.908 49.7 163.666C49.7 162.418 49.5535 161.588 49.2603 161.178C48.9706 160.767 48.6085 160.562 48.1739 160.562C47.7463 160.562 47.4049 160.743 47.1497 161.105C46.8289 161.567 46.6686 162.421 46.6686 163.666ZM51.7848 161.643C51.7848 161.102 51.921 160.641 52.1935 160.262C52.466 159.883 52.8608 159.693 53.3782 159.693C53.8541 159.693 54.2472 159.864 54.5576 160.205C54.8715 160.543 55.0284 161.042 55.0284 161.7C55.0284 162.342 54.8698 162.837 54.5525 163.185C54.2386 163.53 53.8506 163.702 53.3885 163.702C52.9298 163.702 52.547 163.532 52.2401 163.19C51.9366 162.849 51.7848 162.333 51.7848 161.643ZM53.404 160.335C53.173 160.335 52.9798 160.435 52.8246 160.635C52.6729 160.835 52.597 161.202 52.597 161.736C52.597 162.223 52.6746 162.566 52.8298 162.766C52.985 162.962 53.1764 163.061 53.404 163.061C53.6385 163.061 53.8317 162.961 53.9834 162.761C54.1386 162.561 54.2162 162.195 54.2162 161.664C54.2162 161.174 54.1386 160.831 53.9834 160.635C53.8282 160.435 53.6351 160.335 53.404 160.335ZM53.4092 167.686L57.5581 159.693H58.3134L54.18 167.686H53.4092ZM56.689 165.627C56.689 165.082 56.8252 164.621 57.0977 164.245C57.3701 163.866 57.7667 163.676 58.2875 163.676C58.7634 163.676 59.1566 163.847 59.467 164.189C59.7808 164.527 59.9377 165.025 59.9377 165.684C59.9377 166.325 59.7791 166.82 59.4618 167.168C59.148 167.513 58.7583 167.686 58.2927 167.686C57.834 167.686 57.4512 167.515 57.1442 167.173C56.8407 166.829 56.689 166.313 56.689 165.627ZM58.3134 164.318C58.0788 164.318 57.884 164.418 57.7288 164.618C57.577 164.818 57.5012 165.185 57.5012 165.72C57.5012 166.203 57.5788 166.544 57.734 166.744C57.8892 166.944 58.0806 167.044 58.3082 167.044C58.5462 167.044 58.741 166.944 58.8928 166.744C59.0479 166.544 59.1255 166.178 59.1255 165.647C59.1255 165.158 59.0479 164.814 58.8928 164.618C58.7376 164.418 58.5444 164.318 58.3134 164.318Z" fill="#2C3E50"/>
<path d="M39.8193 210.81L40.7504 210.686C40.8574 211.213 41.0384 211.594 41.2936 211.829C41.5523 212.06 41.8661 212.176 42.2351 212.176C42.6731 212.176 43.0422 212.024 43.3422 211.72C43.6457 211.417 43.7974 211.041 43.7974 210.593C43.7974 210.165 43.6578 209.813 43.3784 209.537C43.0991 209.258 42.7438 209.118 42.3127 209.118C42.1369 209.118 41.9179 209.153 41.6558 209.222L41.7592 208.404C41.8213 208.411 41.8713 208.415 41.9092 208.415C42.3058 208.415 42.6628 208.311 42.9801 208.104C43.2974 207.897 43.456 207.578 43.456 207.147C43.456 206.806 43.3405 206.523 43.1094 206.299C42.8783 206.075 42.58 205.963 42.2145 205.963C41.8523 205.963 41.5506 206.076 41.3092 206.304C41.0677 206.532 40.9125 206.873 40.8436 207.328L39.9124 207.163C40.0262 206.539 40.2849 206.056 40.6884 205.714C41.0919 205.369 41.5937 205.197 42.1938 205.197C42.6076 205.197 42.9887 205.287 43.337 205.466C43.6854 205.642 43.9509 205.883 44.1337 206.19C44.3199 206.497 44.4131 206.823 44.4131 207.168C44.4131 207.496 44.3251 207.794 44.1492 208.063C43.9733 208.332 43.713 208.546 43.3681 208.704C43.8164 208.808 44.1647 209.023 44.4131 209.351C44.6614 209.675 44.7855 210.082 44.7855 210.572C44.7855 211.234 44.5441 211.796 44.0613 212.258C43.5784 212.717 42.968 212.946 42.23 212.946C41.5644 212.946 41.0108 212.748 40.5694 212.351C40.1314 211.955 39.8814 211.441 39.8193 210.81ZM45.7115 209.072C45.7115 208.175 45.8029 207.454 45.9857 206.909C46.1719 206.361 46.4461 205.938 46.8082 205.642C47.1738 205.345 47.6325 205.197 48.1843 205.197C48.5912 205.197 48.9482 205.28 49.2551 205.445C49.5621 205.607 49.8156 205.844 50.0156 206.154C50.2156 206.461 50.3725 206.837 50.4864 207.282C50.6002 207.723 50.6571 208.32 50.6571 209.072C50.6571 209.961 50.5657 210.681 50.3829 211.229C50.2001 211.774 49.9259 212.196 49.5604 212.496C49.1982 212.793 48.7395 212.941 48.1843 212.941C47.4532 212.941 46.8789 212.679 46.4616 212.155C45.9616 211.524 45.7115 210.496 45.7115 209.072ZM46.6686 209.072C46.6686 210.317 46.8134 211.146 47.1031 211.56C47.3962 211.97 47.7566 212.176 48.1843 212.176C48.6119 212.176 48.9706 211.969 49.2603 211.555C49.5535 211.141 49.7 210.313 49.7 209.072C49.7 207.823 49.5535 206.994 49.2603 206.583C48.9706 206.173 48.6085 205.968 48.1739 205.968C47.7463 205.968 47.4049 206.149 47.1497 206.511C46.8289 206.973 46.6686 207.827 46.6686 209.072ZM51.7848 207.049C51.7848 206.508 51.921 206.047 52.1935 205.668C52.466 205.288 52.8608 205.099 53.3782 205.099C53.8541 205.099 54.2472 205.269 54.5576 205.611C54.8715 205.949 55.0284 206.447 55.0284 207.106C55.0284 207.747 54.8698 208.242 54.5525 208.591C54.2386 208.935 53.8506 209.108 53.3885 209.108C52.9298 209.108 52.547 208.937 52.2401 208.596C51.9366 208.254 51.7848 207.739 51.7848 207.049ZM53.404 205.74C53.173 205.74 52.9798 205.84 52.8246 206.04C52.6729 206.24 52.597 206.608 52.597 207.142C52.597 207.628 52.6746 207.972 52.8298 208.172C52.985 208.368 53.1764 208.466 53.404 208.466C53.6385 208.466 53.8317 208.366 53.9834 208.166C54.1386 207.966 54.2162 207.601 54.2162 207.07C54.2162 206.58 54.1386 206.237 53.9834 206.04C53.8282 205.84 53.6351 205.74 53.404 205.74ZM53.4092 213.091L57.5581 205.099H58.3134L54.18 213.091H53.4092ZM56.689 211.032C56.689 210.487 56.8252 210.027 57.0977 209.651C57.3701 209.272 57.7667 209.082 58.2875 209.082C58.7634 209.082 59.1566 209.253 59.467 209.594C59.7808 209.932 59.9377 210.431 59.9377 211.089C59.9377 211.731 59.7791 212.226 59.4618 212.574C59.148 212.919 58.7583 213.091 58.2927 213.091C57.834 213.091 57.4512 212.921 57.1442 212.579C56.8407 212.234 56.689 211.719 56.689 211.032ZM58.3134 209.724C58.0788 209.724 57.884 209.824 57.7288 210.024C57.577 210.224 57.5012 210.591 57.5012 211.125C57.5012 211.608 57.5788 211.95 57.734 212.15C57.8892 212.35 58.0806 212.45 58.3082 212.45C58.5462 212.45 58.741 212.35 58.8928 212.15C59.0479 211.95 59.1255 211.584 59.1255 211.053C59.1255 210.563 59.0479 210.22 58.8928 210.024C58.7376 209.824 58.5444 209.724 58.3134 209.724Z" fill="#2C3E50"/>
<path d="M44.7079 257.323V258.218H39.6951C39.6882 257.993 39.7244 257.778 39.8038 257.571C39.9314 257.229 40.1348 256.893 40.4142 256.562C40.697 256.231 41.1039 255.848 41.6351 255.414C42.4593 254.738 43.0163 254.203 43.306 253.81C43.5957 253.413 43.7405 253.039 43.7405 252.687C43.7405 252.318 43.6078 252.008 43.3422 251.756C43.0801 251.501 42.7369 251.373 42.3127 251.373C41.8644 251.373 41.5057 251.508 41.2367 251.777C40.9677 252.046 40.8315 252.418 40.828 252.894L39.871 252.796C39.9365 252.082 40.1831 251.539 40.6108 251.166C41.0384 250.791 41.6126 250.603 42.3334 250.603C43.0611 250.603 43.6371 250.804 44.0613 251.208C44.4855 251.611 44.6976 252.111 44.6976 252.708C44.6976 253.012 44.6355 253.31 44.5113 253.603C44.3872 253.896 44.1803 254.205 43.8906 254.529C43.6043 254.853 43.1267 255.298 42.4576 255.864C41.8989 256.333 41.5402 256.652 41.3816 256.821C41.2229 256.986 41.0919 257.154 40.9884 257.323H44.7079ZM45.7115 254.477C45.7115 253.581 45.8029 252.86 45.9857 252.315C46.1719 251.767 46.4461 251.344 46.8082 251.048C47.1738 250.751 47.6325 250.603 48.1843 250.603C48.5912 250.603 48.9482 250.685 49.2551 250.851C49.5621 251.013 49.8156 251.249 50.0156 251.56C50.2156 251.867 50.3725 252.243 50.4864 252.687C50.6002 253.129 50.6571 253.725 50.6571 254.477C50.6571 255.367 50.5657 256.086 50.3829 256.635C50.2001 257.179 49.9259 257.602 49.5604 257.902C49.1982 258.199 48.7395 258.347 48.1843 258.347C47.4532 258.347 46.8789 258.085 46.4616 257.561C45.9616 256.929 45.7115 255.902 45.7115 254.477ZM46.6686 254.477C46.6686 255.722 46.8134 256.552 47.1031 256.966C47.3962 257.376 47.7566 257.581 48.1843 257.581C48.6119 257.581 48.9706 257.374 49.2603 256.96C49.5535 256.547 49.7 255.719 49.7 254.477C49.7 253.229 49.5535 252.399 49.2603 251.989C48.9706 251.579 48.6085 251.373 48.1739 251.373C47.7463 251.373 47.4049 251.554 47.1497 251.917C46.8289 252.379 46.6686 253.232 46.6686 254.477ZM51.7848 252.455C51.7848 251.913 51.921 251.453 52.1935 251.073C52.466 250.694 52.8608 250.504 53.3782 250.504C53.8541 250.504 54.2472 250.675 54.5576 251.016C54.8715 251.354 55.0284 251.853 55.0284 252.512C55.0284 253.153 54.8698 253.648 54.5525 253.996C54.2386 254.341 53.8506 254.514 53.3885 254.514C52.9298 254.514 52.547 254.343 52.2401 254.001C51.9366 253.66 51.7848 253.144 51.7848 252.455ZM53.404 251.146C53.173 251.146 52.9798 251.246 52.8246 251.446C52.6729 251.646 52.597 252.013 52.597 252.548C52.597 253.034 52.6746 253.377 52.8298 253.577C52.985 253.774 53.1764 253.872 53.404 253.872C53.6385 253.872 53.8317 253.772 53.9834 253.572C54.1386 253.372 54.2162 253.006 54.2162 252.475C54.2162 251.986 54.1386 251.642 53.9834 251.446C53.8282 251.246 53.6351 251.146 53.404 251.146ZM53.4092 258.497L57.5581 250.504H58.3134L54.18 258.497H53.4092ZM56.689 256.438C56.689 255.893 56.8252 255.433 57.0977 255.057C57.3701 254.677 57.7667 254.488 58.2875 254.488C58.7634 254.488 59.1566 254.658 59.467 255C59.7808 255.338 59.9377 255.836 59.9377 256.495C59.9377 257.136 59.7791 257.631 59.4618 257.98C59.148 258.324 58.7583 258.497 58.2927 258.497C57.834 258.497 57.4512 258.326 57.1442 257.985C56.8407 257.64 56.689 257.124 56.689 256.438ZM58.3134 255.129C58.0788 255.129 57.884 255.229 57.7288 255.429C57.577 255.629 57.5012 255.997 57.5012 256.531C57.5012 257.014 57.5788 257.355 57.734 257.555C57.8892 257.755 58.0806 257.855 58.3082 257.855C58.5462 257.855 58.741 257.755 58.8928 257.555C59.0479 257.355 59.1255 256.99 59.1255 256.459C59.1255 255.969 59.0479 255.626 58.8928 255.429C58.7376 255.229 58.5444 255.129 58.3134 255.129Z" fill="#2C3E50"/>
<path d="M43.3215 303.623H42.3903V297.69C42.1662 297.903 41.8713 298.117 41.5057 298.331C41.1436 298.545 40.8177 298.705 40.528 298.812V297.912C41.0488 297.667 41.504 297.371 41.8937 297.022C42.2834 296.674 42.5593 296.336 42.7214 296.008H43.3215V303.623ZM45.7115 299.883C45.7115 298.986 45.8029 298.266 45.9857 297.721C46.1719 297.172 46.4461 296.75 46.8082 296.453C47.1738 296.157 47.6325 296.008 48.1843 296.008C48.5912 296.008 48.9482 296.091 49.2551 296.257C49.5621 296.419 49.8156 296.655 50.0156 296.965C50.2156 297.272 50.3725 297.648 50.4864 298.093C50.6002 298.535 50.6571 299.131 50.6571 299.883C50.6571 300.773 50.5657 301.492 50.3829 302.04C50.2001 302.585 49.9259 303.008 49.5604 303.308C49.1982 303.604 48.7395 303.753 48.1843 303.753C47.4532 303.753 46.8789 303.491 46.4616 302.966C45.9616 302.335 45.7115 301.307 45.7115 299.883ZM46.6686 299.883C46.6686 301.128 46.8134 301.958 47.1031 302.371C47.3962 302.782 47.7566 302.987 48.1843 302.987C48.6119 302.987 48.9706 302.78 49.2603 302.366C49.5535 301.952 49.7 301.125 49.7 299.883C49.7 298.635 49.5535 297.805 49.2603 297.395C48.9706 296.984 48.6085 296.779 48.1739 296.779C47.7463 296.779 47.4049 296.96 47.1497 297.322C46.8289 297.785 46.6686 298.638 46.6686 299.883ZM51.7848 297.86C51.7848 297.319 51.921 296.859 52.1935 296.479C52.466 296.1 52.8608 295.91 53.3782 295.91C53.8541 295.91 54.2472 296.081 54.5576 296.422C54.8715 296.76 55.0284 297.259 55.0284 297.917C55.0284 298.559 54.8698 299.054 54.5525 299.402C54.2386 299.747 53.8506 299.919 53.3885 299.919C52.9298 299.919 52.547 299.749 52.2401 299.407C51.9366 299.066 51.7848 298.55 51.7848 297.86ZM53.404 296.552C53.173 296.552 52.9798 296.652 52.8246 296.852C52.6729 297.052 52.597 297.419 52.597 297.953C52.597 298.44 52.6746 298.783 52.8298 298.983C52.985 299.18 53.1764 299.278 53.404 299.278C53.6385 299.278 53.8317 299.178 53.9834 298.978C54.1386 298.778 54.2162 298.412 54.2162 297.881C54.2162 297.391 54.1386 297.048 53.9834 296.852C53.8282 296.652 53.6351 296.552 53.404 296.552ZM53.4092 303.903L57.5581 295.91H58.3134L54.18 303.903H53.4092ZM56.689 301.844C56.689 301.299 56.8252 300.838 57.0977 300.462C57.3701 300.083 57.7667 299.893 58.2875 299.893C58.7634 299.893 59.1566 300.064 59.467 300.406C59.7808 300.744 59.9377 301.242 59.9377 301.901C59.9377 302.542 59.7791 303.037 59.4618 303.385C59.148 303.73 58.7583 303.903 58.2927 303.903C57.834 303.903 57.4512 303.732 57.1442 303.39C56.8407 303.046 56.689 302.53 56.689 301.844ZM58.3134 300.535C58.0788 300.535 57.884 300.635 57.7288 300.835C57.577 301.035 57.5012 301.402 57.5012 301.937C57.5012 302.42 57.5788 302.761 57.734 302.961C57.8892 303.161 58.0806 303.261 58.3082 303.261C58.5462 303.261 58.741 303.161 58.8928 302.961C59.0479 302.761 59.1255 302.396 59.1255 301.864C59.1255 301.375 59.0479 301.032 58.8928 300.835C58.7376 300.635 58.5444 300.535 58.3134 300.535Z" fill="#2C3E50"/>
<path d="M45.7657 345.289C45.7657 344.392 45.8571 343.671 46.0399 343.126C46.2261 342.578 46.5003 342.155 46.8624 341.859C47.228 341.562 47.6867 341.414 48.2385 341.414C48.6454 341.414 49.0024 341.497 49.3093 341.662C49.6163 341.824 49.8698 342.061 50.0698 342.371C50.2698 342.678 50.4267 343.054 50.5406 343.499C50.6544 343.94 50.7113 344.537 50.7113 345.289C50.7113 346.178 50.6199 346.897 50.4371 347.446C50.2543 347.991 49.9801 348.413 49.6146 348.713C49.2524 349.01 48.7937 349.158 48.2385 349.158C47.5074 349.158 46.9331 348.896 46.5158 348.372C46.0158 347.741 45.7657 346.713 45.7657 345.289ZM46.7228 345.289C46.7228 346.534 46.8676 347.363 47.1573 347.777C47.4504 348.187 47.8108 348.393 48.2385 348.393C48.6661 348.393 49.0248 348.186 49.3145 347.772C49.6077 347.358 49.7542 346.53 49.7542 345.289C49.7542 344.04 49.6077 343.211 49.3145 342.8C49.0248 342.39 48.6627 342.185 48.2281 342.185C47.8005 342.185 47.4591 342.366 47.2039 342.728C46.8831 343.19 46.7228 344.044 46.7228 345.289ZM51.839 343.266C51.839 342.724 51.9752 342.264 52.2477 341.885C52.5202 341.505 52.915 341.316 53.4324 341.316C53.9083 341.316 54.3014 341.486 54.6118 341.828C54.9257 342.166 55.0826 342.664 55.0826 343.323C55.0826 343.964 54.924 344.459 54.6067 344.808C54.2928 345.152 53.9048 345.325 53.4427 345.325C52.984 345.325 52.6012 345.154 52.2943 344.813C51.9908 344.471 51.839 343.956 51.839 343.266ZM53.4582 341.957C53.2272 341.957 53.034 342.057 52.8788 342.257C52.7271 342.457 52.6512 342.824 52.6512 343.359C52.6512 343.845 52.7288 344.188 52.884 344.388C53.0392 344.585 53.2306 344.683 53.4582 344.683C53.6927 344.683 53.8859 344.583 54.0376 344.383C54.1928 344.183 54.2704 343.818 54.2704 343.287C54.2704 342.797 54.1928 342.454 54.0376 342.257C53.8824 342.057 53.6893 341.957 53.4582 341.957ZM53.4634 349.308L57.6123 341.316H58.3676L54.2342 349.308H53.4634ZM56.7432 347.249C56.7432 346.704 56.8794 346.244 57.1519 345.868C57.4243 345.489 57.8209 345.299 58.3417 345.299C58.8176 345.299 59.2108 345.47 59.5212 345.811C59.835 346.149 59.9919 346.647 59.9919 347.306C59.9919 347.948 59.8333 348.443 59.516 348.791C59.2022 349.136 58.8125 349.308 58.3469 349.308C57.8882 349.308 57.5054 349.137 57.1984 348.796C56.8949 348.451 56.7432 347.936 56.7432 347.249ZM58.3676 345.94C58.133 345.94 57.9382 346.04 57.783 346.24C57.6312 346.44 57.5554 346.808 57.5554 347.342C57.5554 347.825 57.633 348.167 57.7882 348.367C57.9434 348.567 58.1348 348.667 58.3624 348.667C58.6004 348.667 58.7952 348.567 58.947 348.367C59.1021 348.167 59.1797 347.801 59.1797 347.27C59.1797 346.78 59.1021 346.437 58.947 346.24C58.7918 346.04 58.5986 345.94 58.3676 345.94Z" fill="#2C3E50"/>
<path d="M75.676 28.0002H544.868" stroke="#E0E0E0" stroke-width="0.756761"/>
<path d="M75.676 73.4058H544.868" stroke="#E0E0E0" stroke-width="0.756761"/>
<path d="M75.676 118.812H544.868" stroke="#E0E0E0" stroke-width="0.756761"/>
<path d="M75.676 164.217H544.868" stroke="#E0E0E0" stroke-width="0.756761"/>
<path d="M75.676 209.623H544.868" stroke="#E0E0E0" stroke-width="0.756761"/>
<path d="M75.676 255.029H544.868" stroke="#E0E0E0" stroke-width="0.756761"/>
<path d="M75.676 300.434H544.868" stroke="#E0E0E0" stroke-width="0.756761"/>
<path d="M75.676 345.84H544.868" stroke="#2C3E50" stroke-width="1.51352"/>
<path d="M75.676 28.0002V345.84" stroke="#2C3E50" stroke-width="1.51352"/>
<path d="M220.974 37.0812H119.568C116.225 37.0812 113.514 39.7917 113.514 43.1353V339.786C113.514 343.129 116.225 345.84 119.568 345.84H220.974C224.318 345.84 227.028 343.129 227.028 339.786V43.1353C227.028 39.7917 224.318 37.0812 220.974 37.0812Z" fill="#F99413"/>
<path d="M160.461 363.205C159.971 363.205 159.535 363.137 159.154 363.001C158.781 362.855 158.482 362.615 158.255 362.279C158.037 361.934 157.914 361.457 157.887 360.849L157.669 356.108H158.772L158.99 360.603C159.018 361.03 159.095 361.353 159.222 361.57C159.349 361.779 159.526 361.92 159.753 361.993C159.989 362.056 160.271 362.088 160.598 362.088C160.788 362.088 160.925 362.143 161.006 362.252C161.097 362.351 161.143 362.474 161.143 362.619C161.143 362.765 161.079 362.901 160.952 363.028C160.825 363.146 160.661 363.205 160.461 363.205ZM158.405 361.707C157.887 361.87 157.383 361.952 156.893 361.952C156.402 361.952 155.957 361.879 155.558 361.734C155.158 361.589 154.84 361.38 154.604 361.107C154.368 360.826 154.25 360.49 154.25 360.099C154.25 359.718 154.345 359.359 154.536 359.023C154.736 358.687 155.004 358.388 155.34 358.124C155.685 357.861 156.08 357.643 156.525 357.47C156.979 357.289 157.46 357.166 157.969 357.103L158.159 358.247C157.705 358.265 157.301 358.329 156.947 358.437C156.602 358.537 156.307 358.669 156.062 358.833C155.826 358.996 155.644 359.173 155.517 359.364C155.39 359.554 155.326 359.741 155.326 359.922C155.326 360.122 155.399 360.285 155.544 360.413C155.689 360.54 155.875 360.64 156.102 360.712C156.33 360.776 156.579 360.817 156.852 360.835C157.124 360.844 157.387 360.835 157.642 360.808C157.896 360.771 158.114 360.721 158.296 360.658L158.405 361.707ZM158.119 354.542C157.928 354.542 157.764 354.478 157.628 354.351C157.501 354.215 157.437 354.056 157.437 353.874C157.437 353.693 157.501 353.534 157.628 353.397C157.764 353.261 157.928 353.193 158.119 353.193C158.3 353.193 158.455 353.261 158.582 353.397C158.718 353.534 158.786 353.693 158.786 353.874C158.786 354.056 158.718 354.215 158.582 354.351C158.455 354.478 158.3 354.542 158.119 354.542ZM156.252 354.542C156.062 354.542 155.898 354.478 155.762 354.351C155.635 354.215 155.571 354.056 155.571 353.874C155.571 353.693 155.635 353.534 155.762 353.397C155.898 353.261 156.062 353.193 156.252 353.193C156.434 353.193 156.588 353.261 156.715 353.397C156.852 353.534 156.92 353.693 156.92 353.874C156.92 354.056 156.852 354.215 156.715 354.351C156.588 354.478 156.434 354.542 156.252 354.542ZM160.466 363.205L160.602 362.088C161.174 362.088 161.615 362.084 161.923 362.074C162.241 362.065 162.473 362.056 162.618 362.047C162.763 362.029 162.863 362.02 162.918 362.02C162.754 361.929 162.564 361.788 162.346 361.598C162.128 361.398 161.937 361.148 161.774 360.849C161.61 360.54 161.528 360.177 161.528 359.759C161.528 359.241 161.646 358.787 161.883 358.397C162.128 358.006 162.459 357.702 162.877 357.484C163.304 357.266 163.79 357.157 164.334 357.157C164.543 357.157 164.766 357.175 165.002 357.212C165.238 357.248 165.465 357.302 165.683 357.375L165.451 358.424C165.27 358.378 165.079 358.342 164.879 358.315C164.68 358.288 164.498 358.274 164.334 358.274C164.008 358.274 163.717 358.338 163.463 358.465C163.208 358.583 163.009 358.751 162.863 358.969C162.718 359.187 162.645 359.45 162.645 359.759C162.645 359.995 162.695 360.213 162.795 360.413C162.895 360.603 163.027 360.776 163.19 360.93C163.354 361.085 163.535 361.212 163.735 361.312C163.935 361.412 164.13 361.489 164.321 361.543C164.521 361.598 164.698 361.62 164.852 361.611C164.961 361.575 165.061 361.543 165.152 361.516C165.243 361.489 165.342 361.457 165.451 361.421C165.569 361.375 165.71 361.316 165.874 361.244C166.046 361.171 166.264 361.076 166.528 360.957L166.909 361.952C166.301 362.197 165.678 362.415 165.043 362.606C164.416 362.796 163.731 362.946 162.986 363.055C162.25 363.155 161.41 363.205 160.466 363.205ZM168.57 363.137L168.297 353.411H169.401L169.673 363.137H168.57ZM170.271 366.27L169.876 365.235C170.793 364.944 171.497 364.594 171.987 364.186C172.487 363.786 172.827 363.369 173.009 362.933C173.2 362.497 173.295 362.079 173.295 361.679C173.295 361.425 173.268 361.18 173.213 360.944C173.159 360.708 173.064 360.44 172.927 360.14C172.791 359.841 172.6 359.468 172.355 359.023L173.35 358.519C173.695 359.109 173.94 359.668 174.085 360.195C174.24 360.721 174.317 361.185 174.317 361.584C174.317 362.156 174.221 362.674 174.031 363.137C173.849 363.6 173.604 364.009 173.295 364.363C172.995 364.726 172.664 365.035 172.301 365.289C171.947 365.543 171.588 365.752 171.225 365.916C170.87 366.079 170.553 366.197 170.271 366.27ZM175.273 366.297L174.878 365.262C175.541 365.044 176.09 364.794 176.526 364.513C176.971 364.231 177.321 363.932 177.575 363.614C177.838 363.296 178.024 362.974 178.133 362.647C178.242 362.311 178.297 361.988 178.297 361.679C178.297 361.234 178.197 360.785 177.997 360.331C177.806 359.868 177.593 359.432 177.357 359.023L178.351 358.519C178.524 358.837 178.674 359.15 178.801 359.459C178.937 359.768 179.055 360.058 179.155 360.331C179.264 360.603 179.35 360.853 179.414 361.08C179.541 361.471 179.704 361.738 179.904 361.884C180.113 362.02 180.395 362.088 180.749 362.088C180.939 362.088 181.076 362.143 181.157 362.252C181.248 362.351 181.294 362.474 181.294 362.619C181.294 362.765 181.23 362.901 181.103 363.028C180.976 363.146 180.812 363.205 180.612 363.205C180.213 363.205 179.886 363.137 179.632 363.001C179.387 362.855 179.2 362.669 179.073 362.442C178.946 362.206 178.86 361.961 178.814 361.707L179.25 361.952C179.25 362.551 179.114 363.096 178.842 363.586C178.578 364.086 178.238 364.517 177.82 364.881C177.402 365.253 176.966 365.557 176.512 365.793C176.058 366.029 175.645 366.197 175.273 366.297ZM177.439 356.953C177.248 356.953 177.084 356.889 176.948 356.762C176.821 356.626 176.758 356.467 176.758 356.285C176.758 356.104 176.821 355.945 176.948 355.808C177.084 355.672 177.248 355.604 177.439 355.604C177.62 355.604 177.775 355.672 177.902 355.808C178.038 355.945 178.106 356.104 178.106 356.285C178.106 356.467 178.038 356.626 177.902 356.762C177.775 356.889 177.62 356.953 177.439 356.953ZM180.619 363.205L180.742 362.088C181.259 362.088 181.623 362.038 181.831 361.938C182.04 361.838 182.158 361.661 182.186 361.407C182.222 361.153 182.231 360.799 182.213 360.345L181.954 353.411H183.057L183.33 360.222C183.348 360.703 183.33 361.13 183.275 361.502C183.23 361.875 183.112 362.188 182.921 362.442C182.74 362.697 182.463 362.887 182.09 363.014C181.727 363.142 181.237 363.205 180.619 363.205ZM185.411 363.137L185.138 353.411H186.242L186.514 363.137H185.411Z" fill="#2C3E50"/>
<path d="M372.326 264.11H270.92C267.577 264.11 264.866 266.82 264.866 270.164V339.786C264.866 343.129 267.577 345.84 270.92 345.84H372.326C375.67 345.84 378.38 343.129 378.38 339.786V270.164C378.38 266.82 375.67 264.11 372.326 264.11Z" fill="#4ECDC4"/>
<path d="M302.161 363.423L302.516 362.306C303.578 362.306 304.491 362.279 305.254 362.224C306.025 362.17 306.657 362.084 307.147 361.965C307.646 361.838 308.014 361.67 308.25 361.461C308.495 361.244 308.618 360.98 308.618 360.671C308.618 360.326 308.554 359.927 308.427 359.473C308.3 359.019 308.137 358.533 307.937 358.015L308.986 357.647C309.104 357.938 309.213 358.251 309.313 358.587C309.422 358.914 309.513 359.241 309.585 359.568C309.658 359.886 309.694 360.181 309.694 360.453C309.694 360.989 309.572 361.448 309.326 361.829C309.081 362.202 308.673 362.506 308.1 362.742C307.528 362.978 306.756 363.151 305.785 363.26C304.822 363.369 303.614 363.423 302.161 363.423ZM302.161 363.423C301.353 363.423 300.64 363.369 300.023 363.26C299.414 363.16 298.906 363.001 298.497 362.783C298.088 362.565 297.78 362.283 297.571 361.938C297.362 361.584 297.258 361.157 297.258 360.658C297.258 360.431 297.276 360.199 297.312 359.963C297.348 359.718 297.394 359.473 297.448 359.228C297.512 358.982 297.575 358.746 297.639 358.519L298.661 358.778C298.624 358.914 298.583 359.078 298.538 359.268C298.493 359.45 298.452 359.636 298.415 359.827C298.388 360.018 298.375 360.19 298.375 360.345C298.375 360.817 298.493 361.198 298.729 361.489C298.974 361.77 299.396 361.979 299.996 362.115C300.595 362.242 301.435 362.306 302.516 362.306L302.788 362.987L302.161 363.423ZM304.436 357.675C304.245 357.675 304.082 357.611 303.946 357.484C303.819 357.348 303.755 357.189 303.755 357.007C303.755 356.826 303.819 356.667 303.946 356.53C304.082 356.394 304.245 356.326 304.436 356.326C304.618 356.326 304.772 356.394 304.899 356.53C305.036 356.667 305.104 356.826 305.104 357.007C305.104 357.189 305.036 357.348 304.899 357.484C304.772 357.611 304.618 357.675 304.436 357.675ZM302.57 357.675C302.379 357.675 302.216 357.611 302.08 357.484C301.953 357.348 301.889 357.189 301.889 357.007C301.889 356.826 301.953 356.667 302.08 356.53C302.216 356.394 302.379 356.326 302.57 356.326C302.752 356.326 302.906 356.394 303.033 356.53C303.169 356.667 303.237 356.826 303.237 357.007C303.237 357.189 303.169 357.348 303.033 357.484C302.906 357.611 302.752 357.675 302.57 357.675ZM314.341 363.205C313.615 363.205 313.056 363.123 312.666 362.96C312.285 362.796 312.021 362.542 311.876 362.197C311.731 361.852 311.649 361.407 311.631 360.862L311.358 353.411H312.475L312.748 360.426C312.766 360.871 312.807 361.216 312.87 361.461C312.943 361.698 313.097 361.861 313.333 361.952C313.579 362.043 313.96 362.088 314.478 362.088C314.668 362.088 314.805 362.143 314.886 362.252C314.977 362.351 315.022 362.474 315.022 362.619C315.022 362.765 314.959 362.901 314.832 363.028C314.705 363.146 314.541 363.205 314.341 363.205ZM314.342 363.205L314.478 362.088C314.732 362.088 314.946 362.034 315.118 361.925C315.291 361.816 315.459 361.634 315.622 361.38C315.786 361.125 315.963 360.785 316.153 360.358C316.417 359.777 316.675 359.337 316.93 359.037C317.193 358.737 317.452 358.533 317.706 358.424C317.97 358.315 318.228 358.26 318.483 358.26C318.791 358.26 319.077 358.342 319.341 358.506C319.604 358.66 319.836 358.869 320.035 359.132C320.235 359.396 320.39 359.686 320.499 360.004C320.617 360.313 320.676 360.621 320.676 360.93C320.676 361.475 320.58 361.911 320.39 362.238C320.199 362.556 319.954 362.787 319.654 362.933C319.363 363.069 319.059 363.137 318.741 363.137C318.46 363.137 318.097 363.082 317.652 362.974C317.216 362.865 316.662 362.588 315.99 362.143L316.521 361.284C316.966 361.566 317.366 361.761 317.72 361.87C318.083 361.97 318.383 362.02 318.619 362.02C318.882 362.02 319.091 361.984 319.245 361.911C319.4 361.829 319.513 361.716 319.586 361.57C319.659 361.425 319.695 361.262 319.695 361.08C319.695 360.817 319.631 360.553 319.504 360.29C319.377 360.027 319.214 359.809 319.014 359.636C318.823 359.464 318.619 359.377 318.401 359.377C318.237 359.377 318.079 359.423 317.924 359.514C317.77 359.604 317.611 359.772 317.447 360.018C317.284 360.263 317.098 360.617 316.889 361.08C316.671 361.57 316.462 361.961 316.262 362.252C316.072 362.533 315.876 362.742 315.677 362.878C315.477 363.014 315.268 363.101 315.05 363.137C314.841 363.182 314.605 363.205 314.342 363.205ZM322.752 363.137L322.479 353.411H323.582L323.855 363.137H322.752ZM327.673 362.088C328.127 362.088 328.486 362.043 328.749 361.952C329.021 361.861 329.217 361.729 329.335 361.557C329.462 361.375 329.525 361.166 329.525 360.93C329.525 360.749 329.475 360.531 329.375 360.276C329.285 360.022 329.158 359.741 328.994 359.432C328.831 359.114 328.64 358.783 328.422 358.437C328.213 358.083 327.986 357.725 327.741 357.361L328.681 356.748C329.035 357.284 329.344 357.793 329.607 358.274C329.87 358.746 330.093 359.191 330.275 359.609C330.456 360.018 330.601 360.404 330.71 360.767C330.838 361.166 330.978 361.461 331.133 361.652C331.296 361.843 331.464 361.965 331.637 362.02C331.809 362.065 331.968 362.088 332.113 362.088C332.304 362.088 332.445 362.143 332.536 362.252C332.627 362.351 332.672 362.474 332.672 362.619C332.672 362.765 332.608 362.901 332.481 363.028C332.354 363.146 332.191 363.205 331.991 363.205C331.691 363.205 331.396 363.151 331.105 363.042C330.824 362.924 330.579 362.737 330.37 362.483C330.161 362.22 330.016 361.87 329.934 361.434L330.479 360.998C330.479 361.362 330.402 361.716 330.247 362.061C330.093 362.397 329.811 362.674 329.403 362.892C329.003 363.11 328.427 363.219 327.673 363.219C327.346 363.219 327.028 363.191 326.719 363.137C326.42 363.082 326.143 363.005 325.888 362.905C325.634 362.796 325.412 362.669 325.221 362.524L325.766 361.584C325.947 361.702 326.202 361.816 326.529 361.925C326.855 362.034 327.237 362.088 327.673 362.088ZM340.671 363.205C340.29 363.205 339.94 363.182 339.622 363.137C339.304 363.082 339.018 362.987 338.764 362.851C338.51 362.715 338.296 362.519 338.124 362.265C337.951 362.002 337.819 361.657 337.729 361.23L338.532 360.753C338.65 361.116 338.796 361.393 338.968 361.584C339.141 361.775 339.372 361.906 339.663 361.979C339.963 362.052 340.344 362.088 340.807 362.088C340.998 362.088 341.134 362.143 341.216 362.252C341.307 362.351 341.352 362.474 341.352 362.619C341.352 362.765 341.288 362.901 341.161 363.028C341.034 363.146 340.871 363.205 340.671 363.205ZM331.994 363.205L332.117 362.088C332.589 362.088 333.052 362.052 333.506 361.979C333.96 361.906 334.405 361.802 334.841 361.666C335.277 361.53 335.695 361.366 336.094 361.175C336.503 360.976 336.889 360.749 337.252 360.494C337.016 360.285 336.743 360.104 336.435 359.949C336.126 359.795 335.785 359.677 335.413 359.595C335.05 359.505 334.664 359.459 334.255 359.459C334.11 359.459 333.974 359.464 333.847 359.473C333.719 359.482 333.592 359.5 333.465 359.527C333.338 359.545 333.193 359.573 333.029 359.609L332.811 358.574C333.056 358.501 333.302 358.447 333.547 358.41C333.792 358.365 334.028 358.342 334.255 358.342C334.727 358.342 335.154 358.401 335.536 358.519C335.917 358.628 336.262 358.764 336.571 358.928C336.889 359.091 337.184 359.255 337.456 359.418C337.738 359.582 338.01 359.722 338.274 359.841C338.537 359.949 338.809 360.004 339.091 360.004H339.377L339.472 360.985C339.082 360.985 338.723 361.039 338.396 361.148C338.069 361.257 337.747 361.398 337.429 361.57C337.12 361.734 336.793 361.911 336.448 362.102C336.103 362.283 335.722 362.46 335.304 362.633C334.886 362.796 334.405 362.933 333.86 363.042C333.324 363.151 332.702 363.205 331.994 363.205ZM334.133 356.939C333.942 356.939 333.778 356.876 333.642 356.748C333.515 356.612 333.451 356.453 333.451 356.272C333.451 356.09 333.515 355.931 333.642 355.795C333.778 355.659 333.942 355.591 334.133 355.591C334.314 355.591 334.469 355.659 334.596 355.795C334.732 355.931 334.8 356.09 334.8 356.272C334.8 356.453 334.732 356.612 334.596 356.748C334.469 356.876 334.314 356.939 334.133 356.939ZM340.667 363.205L340.79 362.088C341.307 362.088 341.671 362.038 341.879 361.938C342.088 361.838 342.206 361.661 342.234 361.407C342.27 361.153 342.279 360.799 342.261 360.345L342.002 353.411H343.105L343.378 360.222C343.396 360.703 343.378 361.13 343.323 361.502C343.278 361.875 343.16 362.188 342.969 362.442C342.788 362.697 342.511 362.887 342.138 363.014C341.775 363.142 341.285 363.205 340.667 363.205ZM345.459 363.137L345.186 353.411H346.29L346.562 363.137H345.459Z" fill="#2C3E50"/>
<path d="M523.679 282.272H422.273C418.929 282.272 416.219 284.982 416.219 288.326V339.786C416.219 343.129 418.929 345.84 422.273 345.84H523.679C527.022 345.84 529.733 343.129 529.733 339.786V288.326C529.733 284.982 527.022 282.272 523.679 282.272Z" fill="#F99413"/>
<path d="M458.495 363.205C458.004 363.205 457.569 363.137 457.187 363.001C456.815 362.855 456.515 362.615 456.288 362.279C456.07 361.934 455.948 361.457 455.92 360.849L455.702 356.108H456.806L457.024 360.603C457.051 361.03 457.128 361.353 457.255 361.57C457.382 361.779 457.559 361.92 457.787 361.993C458.023 362.056 458.304 362.088 458.631 362.088C458.822 362.088 458.958 362.143 459.04 362.252C459.131 362.351 459.176 362.474 459.176 362.619C459.176 362.765 459.112 362.901 458.985 363.028C458.858 363.146 458.695 363.205 458.495 363.205ZM456.438 361.707C455.92 361.87 455.416 361.952 454.926 361.952C454.436 361.952 453.991 361.879 453.591 361.734C453.191 361.589 452.874 361.38 452.638 361.107C452.401 360.826 452.283 360.49 452.283 360.099C452.283 359.718 452.379 359.359 452.569 359.023C452.769 358.687 453.037 358.388 453.373 358.124C453.718 357.861 454.113 357.643 454.558 357.47C455.012 357.289 455.494 357.166 456.002 357.103L456.193 358.247C455.739 358.265 455.335 358.329 454.98 358.437C454.635 358.537 454.34 358.669 454.095 358.833C453.859 358.996 453.677 359.173 453.55 359.364C453.423 359.554 453.359 359.741 453.359 359.922C453.359 360.122 453.432 360.285 453.577 360.413C453.723 360.54 453.909 360.64 454.136 360.712C454.363 360.776 454.613 360.817 454.885 360.835C455.158 360.844 455.421 360.835 455.675 360.808C455.929 360.771 456.147 360.721 456.329 360.658L456.438 361.707ZM456.152 354.542C455.961 354.542 455.798 354.478 455.662 354.351C455.534 354.215 455.471 354.056 455.471 353.874C455.471 353.693 455.534 353.534 455.662 353.397C455.798 353.261 455.961 353.193 456.152 353.193C456.334 353.193 456.488 353.261 456.615 353.397C456.751 353.534 456.819 353.693 456.819 353.874C456.819 354.056 456.751 354.215 456.615 354.351C456.488 354.478 456.334 354.542 456.152 354.542ZM454.286 354.542C454.095 354.542 453.932 354.478 453.795 354.351C453.668 354.215 453.605 354.056 453.605 353.874C453.605 353.693 453.668 353.534 453.795 353.397C453.932 353.261 454.095 353.193 454.286 353.193C454.467 353.193 454.622 353.261 454.749 353.397C454.885 353.534 454.953 353.693 454.953 353.874C454.953 354.056 454.885 354.215 454.749 354.351C454.622 354.478 454.467 354.542 454.286 354.542ZM458.499 363.205L458.636 362.088C459.208 362.088 459.648 362.084 459.957 362.074C460.275 362.065 460.506 362.056 460.652 362.047C460.797 362.029 460.897 362.02 460.951 362.02C460.788 361.929 460.597 361.788 460.379 361.598C460.161 361.398 459.97 361.148 459.807 360.849C459.644 360.54 459.562 360.177 459.562 359.759C459.562 359.241 459.68 358.787 459.916 358.397C460.161 358.006 460.493 357.702 460.91 357.484C461.337 357.266 461.823 357.157 462.368 357.157C462.577 357.157 462.799 357.175 463.035 357.212C463.271 357.248 463.498 357.302 463.716 357.375L463.485 358.424C463.303 358.378 463.113 358.342 462.913 358.315C462.713 358.288 462.531 358.274 462.368 358.274C462.041 358.274 461.75 358.338 461.496 358.465C461.242 358.583 461.042 358.751 460.897 358.969C460.751 359.187 460.679 359.45 460.679 359.759C460.679 359.995 460.729 360.213 460.829 360.413C460.929 360.603 461.06 360.776 461.224 360.93C461.387 361.085 461.569 361.212 461.769 361.312C461.968 361.412 462.164 361.489 462.354 361.543C462.554 361.598 462.731 361.62 462.886 361.611C462.994 361.575 463.094 361.543 463.185 361.516C463.276 361.489 463.376 361.457 463.485 361.421C463.603 361.375 463.744 361.316 463.907 361.244C464.08 361.171 464.298 361.076 464.561 360.957L464.942 361.952C464.334 362.197 463.712 362.415 463.076 362.606C462.45 362.796 461.764 362.946 461.019 363.055C460.284 363.155 459.444 363.205 458.499 363.205ZM469.314 363.205C468.587 363.205 468.029 363.123 467.639 362.96C467.257 362.796 466.994 362.542 466.848 362.197C466.703 361.852 466.621 361.407 466.603 360.862L466.331 353.411H467.448L467.72 360.426C467.738 360.871 467.779 361.216 467.843 361.461C467.915 361.698 468.07 361.861 468.306 361.952C468.551 362.043 468.933 362.088 469.45 362.088C469.641 362.088 469.777 362.143 469.859 362.252C469.95 362.351 469.995 362.474 469.995 362.619C469.995 362.765 469.932 362.901 469.804 363.028C469.677 363.146 469.514 363.205 469.314 363.205ZM469.314 363.205L469.45 362.088C469.832 362.088 470.131 362.056 470.349 361.993C470.567 361.92 470.731 361.788 470.84 361.598C470.958 361.398 471.058 361.112 471.14 360.74C471.221 360.367 471.321 359.881 471.439 359.282L472.502 359.486C472.465 359.65 472.424 359.831 472.379 360.031C472.334 360.231 472.293 360.431 472.256 360.631C472.229 360.821 472.216 360.989 472.216 361.135C472.216 361.316 472.256 361.48 472.338 361.625C472.42 361.77 472.597 361.884 472.869 361.965C473.142 362.047 473.56 362.088 474.123 362.088C474.313 362.088 474.45 362.143 474.531 362.252C474.622 362.351 474.668 362.474 474.668 362.619C474.668 362.765 474.604 362.901 474.477 363.028C474.35 363.146 474.186 363.205 473.986 363.205C473.396 363.205 472.933 363.155 472.597 363.055C472.261 362.946 472.016 362.787 471.861 362.578C471.707 362.361 471.603 362.097 471.548 361.788L471.957 361.816C471.812 362.106 471.653 362.342 471.48 362.524C471.317 362.706 471.135 362.846 470.935 362.946C470.735 363.046 470.504 363.114 470.24 363.151C469.977 363.187 469.668 363.205 469.314 363.205ZM471.439 357.879C471.248 357.879 471.085 357.815 470.949 357.688C470.822 357.552 470.758 357.393 470.758 357.212C470.758 357.03 470.822 356.871 470.949 356.735C471.085 356.599 471.248 356.53 471.439 356.53C471.621 356.53 471.775 356.599 471.902 356.735C472.039 356.871 472.107 357.03 472.107 357.212C472.107 357.393 472.039 357.552 471.902 357.688C471.775 357.815 471.621 357.879 471.439 357.879ZM486.91 363.205C486.674 363.205 486.375 363.182 486.011 363.137C485.657 363.082 485.294 362.992 484.922 362.865C484.558 362.737 484.25 362.56 483.995 362.333L485.112 361.775C485.43 361.902 485.757 361.988 486.093 362.034C486.438 362.07 486.756 362.088 487.047 362.088C487.237 362.088 487.373 362.143 487.455 362.252C487.546 362.351 487.591 362.474 487.591 362.619C487.591 362.765 487.528 362.901 487.401 363.028C487.274 363.146 487.11 363.205 486.91 363.205ZM480.576 363.382C479.777 363.382 479.105 363.35 478.56 363.287C478.024 363.232 477.589 363.146 477.253 363.028C476.917 362.91 476.662 362.76 476.49 362.578C476.317 362.397 476.199 362.179 476.136 361.925L476.449 361.816C476.222 362.252 475.977 362.569 475.713 362.769C475.45 362.96 475.173 363.082 474.882 363.137C474.601 363.182 474.301 363.205 473.983 363.205L474.12 362.088C474.437 362.088 474.696 362.043 474.896 361.952C475.105 361.861 475.273 361.711 475.4 361.502C475.536 361.293 475.654 361.017 475.754 360.671C475.854 360.326 475.963 359.9 476.081 359.391L477.075 359.65C477.021 359.859 476.971 360.058 476.926 360.249C476.88 360.44 476.844 360.608 476.817 360.753C476.799 360.889 476.789 360.998 476.789 361.08C476.789 361.298 476.839 361.484 476.939 361.639C477.039 361.784 477.23 361.906 477.511 362.006C477.793 362.097 478.197 362.165 478.724 362.211C479.259 362.247 479.959 362.265 480.821 362.265C481.421 362.265 481.957 362.229 482.429 362.156C482.901 362.084 483.296 361.975 483.614 361.829C483.941 361.675 484.191 361.489 484.363 361.271C484.536 361.053 484.622 360.803 484.622 360.522C484.622 360.322 484.572 360.127 484.472 359.936C484.372 359.736 484.218 359.568 484.009 359.432C483.8 359.296 483.523 359.228 483.178 359.228C482.742 359.228 482.306 359.341 481.87 359.568C481.443 359.795 481.035 360.081 480.644 360.426C480.263 360.762 479.922 361.107 479.623 361.461C479.323 361.816 479.082 362.124 478.901 362.388L477.716 362.347C478.006 361.875 478.351 361.393 478.751 360.903C479.16 360.404 479.605 359.945 480.086 359.527C480.576 359.1 481.089 358.76 481.625 358.506C482.161 358.242 482.706 358.111 483.26 358.111C483.759 358.111 484.186 358.215 484.54 358.424C484.903 358.624 485.18 358.896 485.371 359.241C485.571 359.586 485.671 359.977 485.671 360.413C485.671 360.948 485.512 361.443 485.194 361.897C484.885 362.342 484.359 362.701 483.614 362.974C482.869 363.246 481.857 363.382 480.576 363.382ZM486.913 363.205L487.036 362.088C487.554 362.088 487.917 362.038 488.126 361.938C488.335 361.838 488.453 361.661 488.48 361.407C488.516 361.153 488.525 360.799 488.507 360.345L488.248 353.411H489.352L489.624 360.222C489.642 360.703 489.624 361.13 489.57 361.502C489.524 361.875 489.406 362.188 489.215 362.442C489.034 362.697 488.757 362.887 488.384 363.014C488.021 363.142 487.531 363.205 486.913 363.205ZM491.705 363.137L491.433 353.411H492.536L492.808 363.137H491.705Z" fill="#2C3E50"/>
</svg>
