<svg width="25" height="25" viewBox="0 0 25 25" fill="none" xmlns="http://www.w3.org/2000/svg">
<g clip-path="url(#clip0_100_135)">
<path d="M20.7974 15.7876L23.2181 13.3669C23.507 13.078 23.6692 12.6862 23.6692 12.2777C23.6692 11.8692 23.507 11.4775 23.2181 11.1886L20.7974 8.76783V5.3406C20.7974 4.93202 20.6351 4.54017 20.3462 4.25126C20.0573 3.96235 19.6654 3.80004 19.2569 3.80004H15.8337L13.414 1.38342C13.271 1.24026 13.1011 1.1267 12.9141 1.04922C12.7271 0.971735 12.5267 0.931854 12.3243 0.931854C12.122 0.931854 11.9215 0.971735 11.7346 1.04922C11.5476 1.1267 11.3777 1.24026 11.2347 1.38342L8.81495 3.80004H5.39183C4.98325 3.80004 4.59141 3.96235 4.3025 4.25126C4.01358 4.54017 3.85128 4.93202 3.85128 5.3406V8.76783L1.43055 11.1886C1.14174 11.4775 0.979492 11.8692 0.979492 12.2777C0.979492 12.6862 1.14174 13.078 1.43055 13.3669L3.85128 15.7876V19.2056C3.85128 19.6142 4.01358 20.0061 4.3025 20.295C4.59141 20.5839 4.98325 20.7462 5.39183 20.7462H8.81495L11.2347 23.1669C11.3777 23.3101 11.5476 23.4236 11.7346 23.5011C11.9215 23.5786 12.122 23.6185 12.3243 23.6185C12.5267 23.6185 12.7271 23.5786 12.9141 23.5011C13.1011 23.4236 13.271 23.3101 13.414 23.1669L15.8337 20.7462H19.2569C19.6654 20.7462 20.0573 20.5839 20.3462 20.295C20.6351 20.0061 20.7974 19.6142 20.7974 19.2056V15.7876Z" stroke="#4ECDC4" stroke-width="1.54056" stroke-linecap="round" stroke-linejoin="round"/>
<path d="M12.3245 6.88113C13.7545 6.88113 15.126 7.44921 16.1371 8.4604C17.1483 9.47159 17.7164 10.8431 17.7164 12.2731C17.7164 13.7031 17.1483 15.0746 16.1371 16.0858C15.126 17.097 13.7545 17.665 12.3245 17.665V6.88113Z" stroke="#4ECDC4" stroke-width="1.54056" stroke-linecap="round" stroke-linejoin="round"/>
</g>
<defs>
<clipPath id="clip0_100_135">
<rect width="24.6489" height="24.6489" fill="white"/>
</clipPath>
</defs>
</svg>
