<svg width="27" height="23" viewBox="0 0 27 23" fill="none" xmlns="http://www.w3.org/2000/svg">
<path d="M26.7261 2.63658C25.7441 3.08378 24.6868 3.38621 23.5777 3.52134C24.7103 2.8264 25.5794 1.72447 25.9888 0.411814C24.9284 1.05527 23.7565 1.52339 22.5047 1.77434C21.507 0.682068 20.0811 0 18.5029 0C15.4769 0 13.0219 2.51754 13.0219 5.62223C13.0219 6.063 13.0689 6.4909 13.163 6.90272C8.60594 6.66785 4.56651 4.43183 1.86049 1.02632C1.38831 1.8596 1.11849 2.8264 1.11849 3.85593C1.11849 5.80562 2.08638 7.52687 3.55783 8.5355C2.66053 8.50815 1.81343 8.25237 1.073 7.83413V7.9033C1.073 10.6284 2.96329 12.9014 5.47323 13.4161C5.0136 13.5481 4.52887 13.614 4.02845 13.614C3.67549 13.614 3.33037 13.5802 2.99624 13.5143C3.69431 15.7471 5.71795 17.3734 8.11807 17.4169C6.2419 18.9258 3.87628 19.825 1.3083 19.825C0.865928 19.825 0.428258 19.7993 0 19.7478C2.42679 21.3404 5.31008 22.2718 8.40515 22.2718C18.492 22.2718 24.006 13.7057 24.006 6.27534C24.006 6.03083 24.0013 5.78631 23.9918 5.54663C25.0633 4.75356 25.9935 3.76424 26.7261 2.63658" fill="#F8F9FA"/>
</svg>
