<svg width="99" height="86" viewBox="0 0 99 86" fill="none" xmlns="http://www.w3.org/2000/svg">
<path d="M31.53 25.0834V60.9168C31.53 61.8671 31.9076 62.7786 32.5796 63.4506C33.2516 64.1226 34.163 64.5001 35.1134 64.5001C36.0637 64.5001 36.9752 64.1226 37.6472 63.4506C38.3192 62.7786 38.6967 61.8671 38.6967 60.9168V25.0834C38.6967 24.1331 38.3192 23.2216 37.6472 22.5496C36.9752 21.8776 36.0637 21.5001 35.1134 21.5001C34.163 21.5001 33.2516 21.8776 32.5796 22.5496C31.9076 23.2216 31.53 24.1331 31.53 25.0834ZM83.8467 32.2501C83.3855 32.3441 82.9473 32.5281 82.5573 32.7915C82.1672 33.0549 81.8328 33.3926 81.5732 33.7852C81.3137 34.1779 81.134 34.6179 81.0446 35.08C80.9551 35.5421 80.9575 36.0173 81.0517 36.4784C82.4508 43.2732 81.6216 50.3379 78.6871 56.624C75.7527 62.9101 70.8695 68.0824 64.7624 71.3732C58.6552 74.6639 51.6498 75.8977 44.7859 74.8913C37.922 73.8849 31.5656 70.692 26.6602 65.7866C21.7548 60.8812 18.5619 54.5248 17.5555 47.6609C16.5491 40.797 17.7829 33.7916 21.0736 27.6845C24.3644 21.5773 29.5367 16.6941 35.8228 13.7597C42.1089 10.8253 49.1736 9.99603 55.9684 11.3951C56.9187 11.5852 57.9057 11.3899 58.7121 10.8523C59.5185 10.3147 60.0783 9.47879 60.2684 8.52844C60.4585 7.57808 60.2632 6.59113 59.7256 5.78473C59.188 4.97832 58.3521 4.41851 57.4017 4.22843C54.7794 3.73985 52.1135 3.5237 49.4467 3.58343C41.6508 3.58343 34.03 5.89518 27.548 10.2263C21.0659 14.5575 16.0138 20.7135 13.0305 27.916C10.0471 35.1185 9.26653 43.0438 10.7874 50.6899C12.3083 58.336 16.0624 65.3594 21.5749 70.8719C27.0874 76.3844 34.1108 80.1385 41.7569 81.6594C49.403 83.1803 57.3284 82.3997 64.5308 79.4164C71.7333 76.433 77.8893 71.3809 82.2205 64.8988C86.5516 58.4168 88.8634 50.796 88.8634 43.0001C88.871 40.3523 88.6068 37.7107 88.0751 35.1168C87.9892 34.6491 87.8112 34.2032 87.5513 33.8051C87.2914 33.4069 86.9549 33.0645 86.5614 32.7977C86.1679 32.5309 85.7252 32.345 85.2591 32.251C84.793 32.157 84.3129 32.1567 83.8467 32.2501ZM45.8634 32.2501V35.8334C45.8792 38.4853 46.8746 41.0377 48.6584 43.0001C46.8746 44.9625 45.8792 47.5149 45.8634 50.1668V53.7501C45.8634 56.6012 46.996 59.3355 49.012 61.3515C51.028 63.3675 53.7623 64.5001 56.6134 64.5001H60.1967C63.0478 64.5001 65.7821 63.3675 67.7981 61.3515C69.8141 59.3355 70.9467 56.6012 70.9467 53.7501V50.1668C70.9309 47.5149 69.9355 44.9625 68.1517 43.0001C69.9355 41.0377 70.9309 38.4853 70.9467 35.8334V32.2501C70.9467 29.399 69.8141 26.6647 67.7981 24.6487C65.7821 22.6327 63.0478 21.5001 60.1967 21.5001H56.6134C53.7623 21.5001 51.028 22.6327 49.012 24.6487C46.996 26.6647 45.8634 29.399 45.8634 32.2501ZM63.78 53.7501C63.78 54.7005 63.4025 55.6119 62.7305 56.2839C62.0585 56.9559 61.1471 57.3334 60.1967 57.3334H56.6134C55.663 57.3334 54.7516 56.9559 54.0796 56.2839C53.4076 55.6119 53.03 54.7005 53.03 53.7501V50.1668C53.03 49.2164 53.4076 48.305 54.0796 47.633C54.7516 46.961 55.663 46.5834 56.6134 46.5834H60.1967C61.1471 46.5834 62.0585 46.961 62.7305 47.633C63.4025 48.305 63.78 49.2164 63.78 50.1668V53.7501ZM63.78 32.2501V35.8334C63.78 36.7838 63.4025 37.6952 62.7305 38.3672C62.0585 39.0392 61.1471 39.4168 60.1967 39.4168H56.6134C55.663 39.4168 54.7516 39.0392 54.0796 38.3672C53.4076 37.6952 53.03 36.7838 53.03 35.8334V32.2501C53.03 31.2997 53.4076 30.3883 54.0796 29.7163C54.7516 29.0443 55.663 28.6668 56.6134 28.6668H60.1967C61.1471 28.6668 62.0585 29.0443 62.7305 29.7163C63.4025 30.3883 63.78 31.2997 63.78 32.2501Z" fill="#F8F9FA"/>
<rect x="68" y="14" width="21" height="5" rx="2.5" fill="#F8F9FA"/>
</svg>
