<svg width="27" height="24" viewBox="0 0 27 24" fill="none" xmlns="http://www.w3.org/2000/svg">
<path d="M26.7127 5.40677C26.5964 8.04229 24.7767 11.645 21.2661 16.2165C17.633 20.9968 14.5545 23.3853 12.0387 23.3853C10.483 23.3853 9.16455 21.9321 8.08813 19.0162C7.36684 16.3408 6.65027 13.6655 5.93056 10.9981C5.12913 8.08053 4.27114 6.62255 3.35342 6.62255C3.15385 6.62255 2.45771 7.04799 1.25714 7.90047L0 6.25765C1.31685 5.08649 2.61485 3.91054 3.89556 2.73778C5.64928 1.19854 6.9677 0.390673 7.8477 0.306221C9.92198 0.102263 11.2011 1.54112 11.6836 4.61802C12.1974 7.94031 12.5588 10.0054 12.7584 10.8148C13.3587 13.5683 14.0155 14.9418 14.7353 14.9418C15.2931 14.9418 16.1323 14.0527 17.2511 12.2728C18.37 10.4898 18.9655 9.13537 19.0473 8.20163C19.2075 6.66238 18.6088 5.89754 17.2511 5.89754C16.6115 5.89754 15.9515 6.03457 15.2743 6.32139C16.5943 1.98888 19.1085 -0.117629 22.8234 0.00506481C25.575 0.0831422 26.8745 1.8869 26.7127 5.40677" fill="#F8F9FA"/>
</svg>
