<svg width="27" height="19" viewBox="0 0 27 19" fill="none" xmlns="http://www.w3.org/2000/svg">
<path fill-rule="evenodd" clip-rule="evenodd" d="M25.3965 1.41223C26.1974 2.22896 26.4589 4.08362 26.4589 4.08362C26.4589 4.08362 26.7261 6.26211 26.7261 8.43976V10.482C26.7261 12.6605 26.4589 14.8381 26.4589 14.8381C26.4589 14.8381 26.1974 16.6928 25.3965 17.5095C24.4808 18.4757 23.4654 18.5755 22.8915 18.6319C22.8284 18.6381 22.7706 18.6438 22.7189 18.6501C18.9789 18.9226 13.3631 18.931 13.3631 18.931C13.3631 18.931 6.41427 18.8671 4.27618 18.6602C4.17488 18.6411 4.05207 18.6263 3.91301 18.6095C3.23575 18.5277 2.17276 18.3992 1.32879 17.5095C0.527841 16.6928 0.267261 14.8381 0.267261 14.8381C0.267261 14.8381 0 12.6605 0 10.482V8.43976C0 6.26211 0.267261 4.08362 0.267261 4.08362C0.267261 4.08362 0.527841 2.22896 1.32879 1.41223C2.24655 0.44471 3.26288 0.345964 3.83685 0.290197C3.89908 0.284151 3.95611 0.27861 4.00725 0.272522C7.74723 0 13.3572 0 13.3572 0H13.3689C13.3689 0 18.9789 0 22.7189 0.272522C22.77 0.278619 22.8271 0.284168 22.8893 0.290224C23.4629 0.345996 24.4796 0.444867 25.3965 1.41223ZM10.6031 5.3942L10.6039 12.9567L17.8241 9.18847L10.6031 5.3942Z" fill="#F8F9FA"/>
</svg>
